<svg xmlns="http://www.w3.org/2000/svg" width="1225.34" height="25.186" viewBox="0 0 1225.34 25.186">
  <g id="Group_28180" data-name="Group 28180" transform="translate(-835 -2000.044)">
    <g id="Group_28179" data-name="Group 28179">
      <g id="Group_28178" data-name="Group 28178" transform="translate(835 2010.757)">
        <path id="Path_16921" data-name="Path 16921" d="M-1,1668.5H16.492v14.474H-1Z" transform="translate(1 -1668.5)" fill="#0117c0"/>
        <path id="Path_16922" data-name="Path 16922" d="M-1,1668.5H16.569v14.474H-1Z" transform="translate(18.492 -1668.5)" fill="#001ee4"/>
      </g>
      <path id="Path_16926" data-name="Path 16926" d="M-17.53,10.543,0-.206,17.81,10.543,0,20.707Z" transform="translate(852.53 2000.25)" fill="#71ece4"/>
    </g>
    <g id="Group_28179-2" data-name="Group 28179" transform="translate(35)">
      <g id="Group_28178-2" data-name="Group 28178" transform="translate(835 2010.757)">
        <path id="Path_16921-2" data-name="Path 16921" d="M-1,1668.5H16.492v14.474H-1Z" transform="translate(1 -1668.5)" fill="#0117c0"/>
        <path id="Path_16922-2" data-name="Path 16922" d="M-1,1668.5H16.569v14.474H-1Z" transform="translate(18.492 -1668.5)" fill="#001ee4"/>
      </g>
      <path id="Path_16926-2" data-name="Path 16926" d="M-17.53,10.543,0-.206,17.81,10.543,0,20.707Z" transform="translate(852.53 2000.25)" fill="#71ece4"/>
    </g>
    <g id="Group_28179-3" data-name="Group 28179" transform="translate(70)">
      <g id="Group_28178-3" data-name="Group 28178" transform="translate(835 2010.757)">
        <path id="Path_16921-3" data-name="Path 16921" d="M-1,1668.5H16.492v14.474H-1Z" transform="translate(1 -1668.5)" fill="#0117c0"/>
        <path id="Path_16922-3" data-name="Path 16922" d="M-1,1668.5H16.569v14.474H-1Z" transform="translate(18.492 -1668.5)" fill="#001ee4"/>
      </g>
      <path id="Path_16926-3" data-name="Path 16926" d="M-17.53,10.543,0-.206,17.81,10.543,0,20.707Z" transform="translate(852.53 2000.25)" fill="#71ece4"/>
    </g>
    <g id="Group_28179-4" data-name="Group 28179" transform="translate(105)">
      <g id="Group_28178-4" data-name="Group 28178" transform="translate(835 2010.757)">
        <path id="Path_16921-4" data-name="Path 16921" d="M-1,1668.5H16.492v14.474H-1Z" transform="translate(1 -1668.5)" fill="#0117c0"/>
        <path id="Path_16922-4" data-name="Path 16922" d="M-1,1668.5H16.569v14.474H-1Z" transform="translate(18.492 -1668.5)" fill="#001ee4"/>
      </g>
      <path id="Path_16926-4" data-name="Path 16926" d="M-17.53,10.543,0-.206,17.81,10.543,0,20.707Z" transform="translate(852.53 2000.25)" fill="#71ece4"/>
    </g>
    <g id="Group_28179-5" data-name="Group 28179" transform="translate(140)">
      <g id="Group_28178-5" data-name="Group 28178" transform="translate(835 2010.757)">
        <path id="Path_16921-5" data-name="Path 16921" d="M-1,1668.5H16.492v14.474H-1Z" transform="translate(1 -1668.5)" fill="#0117c0"/>
        <path id="Path_16922-5" data-name="Path 16922" d="M-1,1668.5H16.569v14.474H-1Z" transform="translate(18.492 -1668.5)" fill="#001ee4"/>
      </g>
      <path id="Path_16926-5" data-name="Path 16926" d="M-17.53,10.543,0-.206,17.81,10.543,0,20.707Z" transform="translate(852.53 2000.25)" fill="#71ece4"/>
    </g>
    <g id="Group_28179-6" data-name="Group 28179" transform="translate(175)">
      <g id="Group_28178-6" data-name="Group 28178" transform="translate(835 2010.757)">
        <path id="Path_16921-6" data-name="Path 16921" d="M-1,1668.5H16.492v14.474H-1Z" transform="translate(1 -1668.5)" fill="#0117c0"/>
        <path id="Path_16922-6" data-name="Path 16922" d="M-1,1668.5H16.569v14.474H-1Z" transform="translate(18.492 -1668.5)" fill="#001ee4"/>
      </g>
      <path id="Path_16926-6" data-name="Path 16926" d="M-17.53,10.543,0-.206,17.81,10.543,0,20.707Z" transform="translate(852.53 2000.25)" fill="#71ece4"/>
    </g>
    <g id="Group_28179-7" data-name="Group 28179" transform="translate(210)">
      <g id="Group_28178-7" data-name="Group 28178" transform="translate(835 2010.757)">
        <path id="Path_16921-7" data-name="Path 16921" d="M-1,1668.5H16.492v14.474H-1Z" transform="translate(1 -1668.5)" fill="#0117c0"/>
        <path id="Path_16922-7" data-name="Path 16922" d="M-1,1668.5H16.569v14.474H-1Z" transform="translate(18.492 -1668.5)" fill="#001ee4"/>
      </g>
      <path id="Path_16926-7" data-name="Path 16926" d="M-17.53,10.543,0-.206,17.81,10.543,0,20.707Z" transform="translate(852.53 2000.25)" fill="#71ece4"/>
    </g>
    <g id="Group_28179-8" data-name="Group 28179" transform="translate(245)">
      <g id="Group_28178-8" data-name="Group 28178" transform="translate(835 2010.757)">
        <path id="Path_16921-8" data-name="Path 16921" d="M-1,1668.5H16.492v14.474H-1Z" transform="translate(1 -1668.5)" fill="#0117c0"/>
        <path id="Path_16922-8" data-name="Path 16922" d="M-1,1668.5H16.569v14.474H-1Z" transform="translate(18.492 -1668.5)" fill="#001ee4"/>
      </g>
      <path id="Path_16926-8" data-name="Path 16926" d="M-17.53,10.543,0-.206,17.81,10.543,0,20.707Z" transform="translate(852.53 2000.25)" fill="#71ece4"/>
    </g>
    <g id="Group_28179-9" data-name="Group 28179" transform="translate(280)">
      <g id="Group_28178-9" data-name="Group 28178" transform="translate(835 2010.757)">
        <path id="Path_16921-9" data-name="Path 16921" d="M-1,1668.5H16.492v14.474H-1Z" transform="translate(1 -1668.5)" fill="#0117c0"/>
        <path id="Path_16922-9" data-name="Path 16922" d="M-1,1668.5H16.569v14.474H-1Z" transform="translate(18.492 -1668.5)" fill="#001ee4"/>
      </g>
      <path id="Path_16926-9" data-name="Path 16926" d="M-17.53,10.543,0-.206,17.81,10.543,0,20.707Z" transform="translate(852.53 2000.25)" fill="#71ece4"/>
    </g>
    <g id="Group_28179-10" data-name="Group 28179" transform="translate(315)">
      <g id="Group_28178-10" data-name="Group 28178" transform="translate(835 2010.757)">
        <path id="Path_16921-10" data-name="Path 16921" d="M-1,1668.5H16.492v14.474H-1Z" transform="translate(1 -1668.5)" fill="#0117c0"/>
        <path id="Path_16922-10" data-name="Path 16922" d="M-1,1668.5H16.569v14.474H-1Z" transform="translate(18.492 -1668.5)" fill="#001ee4"/>
      </g>
      <path id="Path_16926-10" data-name="Path 16926" d="M-17.53,10.543,0-.206,17.81,10.543,0,20.707Z" transform="translate(852.53 2000.25)" fill="#71ece4"/>
    </g>
    <g id="Group_28179-11" data-name="Group 28179" transform="translate(350)">
      <g id="Group_28178-11" data-name="Group 28178" transform="translate(835 2010.757)">
        <path id="Path_16921-11" data-name="Path 16921" d="M-1,1668.5H16.492v14.474H-1Z" transform="translate(1 -1668.5)" fill="#0117c0"/>
        <path id="Path_16922-11" data-name="Path 16922" d="M-1,1668.5H16.569v14.474H-1Z" transform="translate(18.492 -1668.5)" fill="#001ee4"/>
      </g>
      <path id="Path_16926-11" data-name="Path 16926" d="M-17.53,10.543,0-.206,17.81,10.543,0,20.707Z" transform="translate(852.53 2000.25)" fill="#71ece4"/>
    </g>
    <g id="Group_28179-12" data-name="Group 28179" transform="translate(385)">
      <g id="Group_28178-12" data-name="Group 28178" transform="translate(835 2010.757)">
        <path id="Path_16921-12" data-name="Path 16921" d="M-1,1668.5H16.492v14.474H-1Z" transform="translate(1 -1668.5)" fill="#0117c0"/>
        <path id="Path_16922-12" data-name="Path 16922" d="M-1,1668.5H16.569v14.474H-1Z" transform="translate(18.492 -1668.5)" fill="#001ee4"/>
      </g>
      <path id="Path_16926-12" data-name="Path 16926" d="M-17.53,10.543,0-.206,17.81,10.543,0,20.707Z" transform="translate(852.53 2000.25)" fill="#71ece4"/>
    </g>
    <g id="Group_28179-13" data-name="Group 28179" transform="translate(420)">
      <g id="Group_28178-13" data-name="Group 28178" transform="translate(835 2010.757)">
        <path id="Path_16921-13" data-name="Path 16921" d="M-1,1668.5H16.492v14.474H-1Z" transform="translate(1 -1668.5)" fill="#0117c0"/>
        <path id="Path_16922-13" data-name="Path 16922" d="M-1,1668.5H16.569v14.474H-1Z" transform="translate(18.492 -1668.5)" fill="#001ee4"/>
      </g>
      <path id="Path_16926-13" data-name="Path 16926" d="M-17.53,10.543,0-.206,17.81,10.543,0,20.707Z" transform="translate(852.53 2000.25)" fill="#71ece4"/>
    </g>
    <g id="Group_28179-14" data-name="Group 28179" transform="translate(455)">
      <g id="Group_28178-14" data-name="Group 28178" transform="translate(835 2010.757)">
        <path id="Path_16921-14" data-name="Path 16921" d="M-1,1668.5H16.492v14.474H-1Z" transform="translate(1 -1668.5)" fill="#0117c0"/>
        <path id="Path_16922-14" data-name="Path 16922" d="M-1,1668.5H16.569v14.474H-1Z" transform="translate(18.492 -1668.5)" fill="#001ee4"/>
      </g>
      <path id="Path_16926-14" data-name="Path 16926" d="M-17.53,10.543,0-.206,17.81,10.543,0,20.707Z" transform="translate(852.53 2000.25)" fill="#71ece4"/>
    </g>
    <g id="Group_28179-15" data-name="Group 28179" transform="translate(490)">
      <g id="Group_28178-15" data-name="Group 28178" transform="translate(835 2010.757)">
        <path id="Path_16921-15" data-name="Path 16921" d="M-1,1668.5H16.492v14.474H-1Z" transform="translate(1 -1668.5)" fill="#0117c0"/>
        <path id="Path_16922-15" data-name="Path 16922" d="M-1,1668.5H16.569v14.474H-1Z" transform="translate(18.492 -1668.5)" fill="#001ee4"/>
      </g>
      <path id="Path_16926-15" data-name="Path 16926" d="M-17.53,10.543,0-.206,17.81,10.543,0,20.707Z" transform="translate(852.53 2000.25)" fill="#71ece4"/>
    </g>
    <g id="Group_28179-16" data-name="Group 28179" transform="translate(525)">
      <g id="Group_28178-16" data-name="Group 28178" transform="translate(835 2010.757)">
        <path id="Path_16921-16" data-name="Path 16921" d="M-1,1668.5H16.492v14.474H-1Z" transform="translate(1 -1668.5)" fill="#0117c0"/>
        <path id="Path_16922-16" data-name="Path 16922" d="M-1,1668.5H16.569v14.474H-1Z" transform="translate(18.492 -1668.5)" fill="#001ee4"/>
      </g>
      <path id="Path_16926-16" data-name="Path 16926" d="M-17.53,10.543,0-.206,17.81,10.543,0,20.707Z" transform="translate(852.53 2000.25)" fill="#71ece4"/>
    </g>
    <g id="Group_28179-17" data-name="Group 28179" transform="translate(560)">
      <g id="Group_28178-17" data-name="Group 28178" transform="translate(835 2010.757)">
        <path id="Path_16921-17" data-name="Path 16921" d="M-1,1668.5H16.492v14.474H-1Z" transform="translate(1 -1668.5)" fill="#0117c0"/>
        <path id="Path_16922-17" data-name="Path 16922" d="M-1,1668.5H16.569v14.474H-1Z" transform="translate(18.492 -1668.5)" fill="#001ee4"/>
      </g>
      <path id="Path_16926-17" data-name="Path 16926" d="M-17.53,10.543,0-.206,17.81,10.543,0,20.707Z" transform="translate(852.53 2000.25)" fill="#71ece4"/>
    </g>
    <g id="Group_28179-18" data-name="Group 28179" transform="translate(595)">
      <g id="Group_28178-18" data-name="Group 28178" transform="translate(835 2010.757)">
        <path id="Path_16921-18" data-name="Path 16921" d="M-1,1668.5H16.492v14.474H-1Z" transform="translate(1 -1668.5)" fill="#0117c0"/>
        <path id="Path_16922-18" data-name="Path 16922" d="M-1,1668.5H16.569v14.474H-1Z" transform="translate(18.492 -1668.5)" fill="#001ee4"/>
      </g>
      <path id="Path_16926-18" data-name="Path 16926" d="M-17.53,10.543,0-.206,17.81,10.543,0,20.707Z" transform="translate(852.53 2000.25)" fill="#71ece4"/>
    </g>
    <g id="Group_28179-19" data-name="Group 28179" transform="translate(630)">
      <g id="Group_28178-19" data-name="Group 28178" transform="translate(835 2010.757)">
        <path id="Path_16921-19" data-name="Path 16921" d="M-1,1668.5H16.492v14.474H-1Z" transform="translate(1 -1668.5)" fill="#0117c0"/>
        <path id="Path_16922-19" data-name="Path 16922" d="M-1,1668.5H16.569v14.474H-1Z" transform="translate(18.492 -1668.5)" fill="#001ee4"/>
      </g>
      <path id="Path_16926-19" data-name="Path 16926" d="M-17.53,10.543,0-.206,17.81,10.543,0,20.707Z" transform="translate(852.53 2000.25)" fill="#71ece4"/>
    </g>
    <g id="Group_28179-20" data-name="Group 28179" transform="translate(665)">
      <g id="Group_28178-20" data-name="Group 28178" transform="translate(835 2010.757)">
        <path id="Path_16921-20" data-name="Path 16921" d="M-1,1668.5H16.492v14.474H-1Z" transform="translate(1 -1668.5)" fill="#0117c0"/>
        <path id="Path_16922-20" data-name="Path 16922" d="M-1,1668.5H16.569v14.474H-1Z" transform="translate(18.492 -1668.5)" fill="#001ee4"/>
      </g>
      <path id="Path_16926-20" data-name="Path 16926" d="M-17.53,10.543,0-.206,17.81,10.543,0,20.707Z" transform="translate(852.53 2000.25)" fill="#71ece4"/>
    </g>
    <g id="Group_28179-21" data-name="Group 28179" transform="translate(700)">
      <g id="Group_28178-21" data-name="Group 28178" transform="translate(835 2010.757)">
        <path id="Path_16921-21" data-name="Path 16921" d="M-1,1668.5H16.492v14.474H-1Z" transform="translate(1 -1668.5)" fill="#0117c0"/>
        <path id="Path_16922-21" data-name="Path 16922" d="M-1,1668.5H16.569v14.474H-1Z" transform="translate(18.492 -1668.5)" fill="#001ee4"/>
      </g>
      <path id="Path_16926-21" data-name="Path 16926" d="M-17.53,10.543,0-.206,17.81,10.543,0,20.707Z" transform="translate(852.53 2000.25)" fill="#71ece4"/>
    </g>
    <g id="Group_28179-22" data-name="Group 28179" transform="translate(735)">
      <g id="Group_28178-22" data-name="Group 28178" transform="translate(835 2010.757)">
        <path id="Path_16921-22" data-name="Path 16921" d="M-1,1668.5H16.492v14.474H-1Z" transform="translate(1 -1668.5)" fill="#0117c0"/>
        <path id="Path_16922-22" data-name="Path 16922" d="M-1,1668.5H16.569v14.474H-1Z" transform="translate(18.492 -1668.5)" fill="#001ee4"/>
      </g>
      <path id="Path_16926-22" data-name="Path 16926" d="M-17.53,10.543,0-.206,17.81,10.543,0,20.707Z" transform="translate(852.53 2000.25)" fill="#71ece4"/>
    </g>
    <g id="Group_28179-23" data-name="Group 28179" transform="translate(770)">
      <g id="Group_28178-23" data-name="Group 28178" transform="translate(835 2010.757)">
        <path id="Path_16921-23" data-name="Path 16921" d="M-1,1668.5H16.492v14.474H-1Z" transform="translate(1 -1668.5)" fill="#0117c0"/>
        <path id="Path_16922-23" data-name="Path 16922" d="M-1,1668.5H16.569v14.474H-1Z" transform="translate(18.492 -1668.5)" fill="#001ee4"/>
      </g>
      <path id="Path_16926-23" data-name="Path 16926" d="M-17.53,10.543,0-.206,17.81,10.543,0,20.707Z" transform="translate(852.53 2000.25)" fill="#71ece4"/>
    </g>
    <g id="Group_28179-24" data-name="Group 28179" transform="translate(805)">
      <g id="Group_28178-24" data-name="Group 28178" transform="translate(835 2010.757)">
        <path id="Path_16921-24" data-name="Path 16921" d="M-1,1668.5H16.492v14.474H-1Z" transform="translate(1 -1668.5)" fill="#0117c0"/>
        <path id="Path_16922-24" data-name="Path 16922" d="M-1,1668.5H16.569v14.474H-1Z" transform="translate(18.492 -1668.5)" fill="#001ee4"/>
      </g>
      <path id="Path_16926-24" data-name="Path 16926" d="M-17.53,10.543,0-.206,17.81,10.543,0,20.707Z" transform="translate(852.53 2000.25)" fill="#71ece4"/>
    </g>
    <g id="Group_28179-25" data-name="Group 28179" transform="translate(840)">
      <g id="Group_28178-25" data-name="Group 28178" transform="translate(835 2010.757)">
        <path id="Path_16921-25" data-name="Path 16921" d="M-1,1668.5H16.492v14.474H-1Z" transform="translate(1 -1668.5)" fill="#0117c0"/>
        <path id="Path_16922-25" data-name="Path 16922" d="M-1,1668.5H16.569v14.474H-1Z" transform="translate(18.492 -1668.5)" fill="#001ee4"/>
      </g>
      <path id="Path_16926-25" data-name="Path 16926" d="M-17.53,10.543,0-.206,17.81,10.543,0,20.707Z" transform="translate(852.53 2000.25)" fill="#71ece4"/>
    </g>
    <g id="Group_28179-26" data-name="Group 28179" transform="translate(875)">
      <g id="Group_28178-26" data-name="Group 28178" transform="translate(835 2010.757)">
        <path id="Path_16921-26" data-name="Path 16921" d="M-1,1668.5H16.492v14.474H-1Z" transform="translate(1 -1668.5)" fill="#0117c0"/>
        <path id="Path_16922-26" data-name="Path 16922" d="M-1,1668.5H16.569v14.474H-1Z" transform="translate(18.492 -1668.5)" fill="#001ee4"/>
      </g>
      <path id="Path_16926-26" data-name="Path 16926" d="M-17.53,10.543,0-.206,17.81,10.543,0,20.707Z" transform="translate(852.53 2000.25)" fill="#71ece4"/>
    </g>
    <g id="Group_28179-27" data-name="Group 28179" transform="translate(910)">
      <g id="Group_28178-27" data-name="Group 28178" transform="translate(835 2010.757)">
        <path id="Path_16921-27" data-name="Path 16921" d="M-1,1668.5H16.492v14.474H-1Z" transform="translate(1 -1668.5)" fill="#0117c0"/>
        <path id="Path_16922-27" data-name="Path 16922" d="M-1,1668.5H16.569v14.474H-1Z" transform="translate(18.492 -1668.5)" fill="#001ee4"/>
      </g>
      <path id="Path_16926-27" data-name="Path 16926" d="M-17.53,10.543,0-.206,17.81,10.543,0,20.707Z" transform="translate(852.53 2000.25)" fill="#71ece4"/>
    </g>
    <g id="Group_28179-28" data-name="Group 28179" transform="translate(945)">
      <g id="Group_28178-28" data-name="Group 28178" transform="translate(835 2010.757)">
        <path id="Path_16921-28" data-name="Path 16921" d="M-1,1668.5H16.492v14.474H-1Z" transform="translate(1 -1668.5)" fill="#0117c0"/>
        <path id="Path_16922-28" data-name="Path 16922" d="M-1,1668.5H16.569v14.474H-1Z" transform="translate(18.492 -1668.5)" fill="#001ee4"/>
      </g>
      <path id="Path_16926-28" data-name="Path 16926" d="M-17.53,10.543,0-.206,17.81,10.543,0,20.707Z" transform="translate(852.53 2000.25)" fill="#71ece4"/>
    </g>
    <g id="Group_28179-29" data-name="Group 28179" transform="translate(980)">
      <g id="Group_28178-29" data-name="Group 28178" transform="translate(835 2010.757)">
        <path id="Path_16921-29" data-name="Path 16921" d="M-1,1668.5H16.492v14.474H-1Z" transform="translate(1 -1668.5)" fill="#0117c0"/>
        <path id="Path_16922-29" data-name="Path 16922" d="M-1,1668.5H16.569v14.474H-1Z" transform="translate(18.492 -1668.5)" fill="#001ee4"/>
      </g>
      <path id="Path_16926-29" data-name="Path 16926" d="M-17.53,10.543,0-.206,17.81,10.543,0,20.707Z" transform="translate(852.53 2000.25)" fill="#71ece4"/>
    </g>
    <g id="Group_28179-30" data-name="Group 28179" transform="translate(1015)">
      <g id="Group_28178-30" data-name="Group 28178" transform="translate(835 2010.757)">
        <path id="Path_16921-30" data-name="Path 16921" d="M-1,1668.5H16.492v14.474H-1Z" transform="translate(1 -1668.5)" fill="#0117c0"/>
        <path id="Path_16922-30" data-name="Path 16922" d="M-1,1668.5H16.569v14.474H-1Z" transform="translate(18.492 -1668.5)" fill="#001ee4"/>
      </g>
      <path id="Path_16926-30" data-name="Path 16926" d="M-17.53,10.543,0-.206,17.81,10.543,0,20.707Z" transform="translate(852.53 2000.25)" fill="#71ece4"/>
    </g>
    <g id="Group_28179-31" data-name="Group 28179" transform="translate(1050)">
      <g id="Group_28178-31" data-name="Group 28178" transform="translate(835 2010.757)">
        <path id="Path_16921-31" data-name="Path 16921" d="M-1,1668.5H16.492v14.474H-1Z" transform="translate(1 -1668.5)" fill="#0117c0"/>
        <path id="Path_16922-31" data-name="Path 16922" d="M-1,1668.5H16.569v14.474H-1Z" transform="translate(18.492 -1668.5)" fill="#001ee4"/>
      </g>
      <path id="Path_16926-31" data-name="Path 16926" d="M-17.53,10.543,0-.206,17.81,10.543,0,20.707Z" transform="translate(852.53 2000.25)" fill="#71ece4"/>
    </g>
    <g id="Group_28179-32" data-name="Group 28179" transform="translate(1085)">
      <g id="Group_28178-32" data-name="Group 28178" transform="translate(835 2010.757)">
        <path id="Path_16921-32" data-name="Path 16921" d="M-1,1668.5H16.492v14.474H-1Z" transform="translate(1 -1668.5)" fill="#0117c0"/>
        <path id="Path_16922-32" data-name="Path 16922" d="M-1,1668.5H16.569v14.474H-1Z" transform="translate(18.492 -1668.5)" fill="#001ee4"/>
      </g>
      <path id="Path_16926-32" data-name="Path 16926" d="M-17.53,10.543,0-.206,17.81,10.543,0,20.707Z" transform="translate(852.53 2000.25)" fill="#71ece4"/>
    </g>
    <g id="Group_28179-33" data-name="Group 28179" transform="translate(1120)">
      <g id="Group_28178-33" data-name="Group 28178" transform="translate(835 2010.757)">
        <path id="Path_16921-33" data-name="Path 16921" d="M-1,1668.5H16.492v14.474H-1Z" transform="translate(1 -1668.5)" fill="#0117c0"/>
        <path id="Path_16922-33" data-name="Path 16922" d="M-1,1668.5H16.569v14.474H-1Z" transform="translate(18.492 -1668.5)" fill="#001ee4"/>
      </g>
      <path id="Path_16926-33" data-name="Path 16926" d="M-17.53,10.543,0-.206,17.81,10.543,0,20.707Z" transform="translate(852.53 2000.25)" fill="#71ece4"/>
    </g>
    <g id="Group_28179-34" data-name="Group 28179" transform="translate(1155)">
      <g id="Group_28178-34" data-name="Group 28178" transform="translate(835 2010.757)">
        <path id="Path_16921-34" data-name="Path 16921" d="M-1,1668.5H16.492v14.474H-1Z" transform="translate(1 -1668.5)" fill="#0117c0"/>
        <path id="Path_16922-34" data-name="Path 16922" d="M-1,1668.5H16.569v14.474H-1Z" transform="translate(18.492 -1668.5)" fill="#001ee4"/>
      </g>
      <path id="Path_16926-34" data-name="Path 16926" d="M-17.53,10.543,0-.206,17.81,10.543,0,20.707Z" transform="translate(852.53 2000.25)" fill="#71ece4"/>
    </g>
    <g id="Group_28179-35" data-name="Group 28179" transform="translate(1190)">
      <g id="Group_28178-35" data-name="Group 28178" transform="translate(835 2010.757)">
        <path id="Path_16921-35" data-name="Path 16921" d="M-1,1668.5H16.492v14.474H-1Z" transform="translate(1 -1668.5)" fill="#0117c0"/>
        <path id="Path_16922-35" data-name="Path 16922" d="M-1,1668.5H16.569v14.474H-1Z" transform="translate(18.492 -1668.5)" fill="#001ee4"/>
      </g>
      <path id="Path_16926-35" data-name="Path 16926" d="M-17.53,10.543,0-.206,17.81,10.543,0,20.707Z" transform="translate(852.53 2000.25)" fill="#71ece4"/>
    </g>
  </g>
</svg>
