<svg xmlns="http://www.w3.org/2000/svg" width="28.973" height="53.65" viewBox="0 0 28.973 53.65">
  <path id="facebook_1_" data-name="facebook (1)" d="M7.707,30.575h5.524V51a1.645,1.645,0,0,0,1.645,1.645l8.79,0a1.646,1.646,0,0,0,1.645-1.645V30.577h5.237a1.646,1.646,0,0,0,1.632-1.441l1.092-8.775a1.647,1.647,0,0,0-1.632-1.849H25.312c.248-5.421-.954-7.024,2.571-7.024,2.387-.285,6.151.924,6.151-1.645V1.994A1.646,1.646,0,0,0,32.613.364,59.068,59.068,0,0,0,25.826,0C10.447,0,13.613,17.05,13.233,18.509H7.707a1.646,1.646,0,0,0-1.645,1.645v8.775a1.646,1.646,0,0,0,1.645,1.645ZM9.353,21.8h5.524a1.646,1.646,0,0,0,1.645-1.645V13.244c0-6.325,3.389-9.951,9.3-9.951,1.926,0,3.7.094,4.918.191V8.2c-.882.45-8.722-1.939-8.722,5.917v6.044A1.646,1.646,0,0,0,23.665,21.8h6.112l-.684,5.484H23.665a1.646,1.646,0,0,0-1.645,1.645V49.36h-5.5V28.931a1.646,1.646,0,0,0-1.645-1.645H9.353Z" transform="translate(-5.563 0.5)" fill="#0200e0" stroke="#fff" stroke-width="1"/>
</svg>
