<svg xmlns="http://www.w3.org/2000/svg" width="48.5" height="48.5" viewBox="0 0 48.5 48.5">
  <g id="globe" transform="translate(0.25 0.25)">
    <g id="Group_8415" data-name="Group 8415">
      <path id="Path_8120" data-name="Path 8120" d="M24,0C13.861,0,0,7.663,0,24,0,39.921,13.332,48,24,48c18.3,0,24-16.035,24-24C48,12.246,39,0,24,0ZM18.435,2.258c-2.5,2.135-4.583,5.669-5.924,10.054A22.3,22.3,0,0,1,7.757,8.523,22.486,22.486,0,0,1,18.435,2.258ZM6.728,9.676a23.53,23.53,0,0,0,5.357,4.176,40.579,40.579,0,0,0-1.228,9.373H1.569A22.354,22.354,0,0,1,6.728,9.676Zm0,28.649a22.3,22.3,0,0,1-5.159-13.55h9.288a40.51,40.51,0,0,0,1.228,9.373A24.226,24.226,0,0,0,6.728,38.324Zm1.03,1.162A22.3,22.3,0,0,1,12.51,35.7c1.342,4.375,3.42,7.918,5.924,10.054A22.64,22.64,0,0,1,7.757,39.487Zm15.468,6.907c-4.025-.51-7.493-5.008-9.364-11.452a22.585,22.585,0,0,1,9.364-2.409V46.394Zm0-15.4a24.039,24.039,0,0,0-9.761,2.428A40.532,40.532,0,0,1,12.4,24.775H23.225Zm0-7.767H12.4a40.532,40.532,0,0,1,1.068-8.646,24.115,24.115,0,0,0,9.761,2.428Zm0-7.757a22.4,22.4,0,0,1-9.364-2.409C15.732,6.6,19.2,2.117,23.225,1.606ZM41.272,9.676a22.354,22.354,0,0,1,5.159,13.55H37.153a40.51,40.51,0,0,0-1.228-9.373A23.958,23.958,0,0,0,41.272,9.676Zm-1.03-1.162A22.3,22.3,0,0,1,35.49,12.3c-1.342-4.375-3.42-7.909-5.924-10.054A22.64,22.64,0,0,1,40.243,8.513ZM24.775,1.606c4.025.51,7.493,5.008,9.364,11.452a22.547,22.547,0,0,1-9.364,2.409Zm0,15.4a24.039,24.039,0,0,0,9.761-2.428A40.532,40.532,0,0,1,35.6,23.225H24.775Zm0,7.767H35.6a40.532,40.532,0,0,1-1.068,8.646,23.739,23.739,0,0,0-9.761-2.428Zm0,21.619V32.532a22.4,22.4,0,0,1,9.364,2.409C32.268,41.4,28.8,45.883,24.775,46.394Zm4.791-.652c2.5-2.135,4.583-5.669,5.924-10.054a22.3,22.3,0,0,1,4.753,3.789A22.486,22.486,0,0,1,29.565,45.742Zm11.707-7.417a23.958,23.958,0,0,0-5.348-4.176,40.579,40.579,0,0,0,1.228-9.373h9.279A22.354,22.354,0,0,1,41.272,38.324Z" fill="#0200e0" stroke="#0200e0" stroke-width="0.5"/>
    </g>
  </g>
</svg>
