<svg xmlns="http://www.w3.org/2000/svg" width="49.5" height="49.5" viewBox="0 0 49.5 49.5">
  <g id="instagram" transform="translate(0.75 0.75)">
    <g id="Group_8417" data-name="Group 8417">
      <g id="Group_8416" data-name="Group 8416">
        <path id="Path_8121" data-name="Path 8121" d="M34.057,0H13.943A13.959,13.959,0,0,0,0,13.943V34.057A13.959,13.959,0,0,0,13.943,48H34.057A13.959,13.959,0,0,0,48,34.057V13.943A13.959,13.959,0,0,0,34.057,0ZM44.25,34.057A10.2,10.2,0,0,1,34.057,44.25H13.943A10.2,10.2,0,0,1,3.75,34.057V13.943A10.2,10.2,0,0,1,13.943,3.75H34.057A10.2,10.2,0,0,1,44.25,13.943Z" fill="#0200e0" stroke="#fff" stroke-width="1.5"/>
      </g>
    </g>
    <g id="Group_8419" data-name="Group 8419" transform="translate(11.063 11.063)">
      <g id="Group_8418" data-name="Group 8418">
        <path id="Path_8122" data-name="Path 8122" d="M130.937,118a12.938,12.938,0,1,0,12.938,12.937A12.952,12.952,0,0,0,130.937,118Zm0,22.125a9.188,9.188,0,1,1,9.188-9.188A9.2,9.2,0,0,1,130.937,140.125Z" transform="translate(-118 -118)" fill="#0200e0" stroke="#fff" stroke-width="1.5"/>
      </g>
    </g>
    <g id="Group_8421" data-name="Group 8421" transform="translate(35.978 9.028)">
      <g id="Group_8420" data-name="Group 8420" transform="translate(0 0)">
        <circle id="Ellipse_1175" data-name="Ellipse 1175" cx="1.497" cy="1.497" r="1.497" fill="#0200e0" stroke="#fff" stroke-width="1.5"/>
      </g>
    </g>
  </g>
</svg>
