<svg xmlns="http://www.w3.org/2000/svg" width="48.467" height="48.516" viewBox="0 0 48.467 48.516">
  <g id="linkedin" transform="translate(0.219 0.25)">
    <path id="Path_8124" data-name="Path 8124" d="M29.278,40.91l9.323,0a1.5,1.5,0,0,0,1.5-1.5C39.4,23.688,43.786,7.1,27.421,7.1A11.9,11.9,0,0,0,19.961,9.6c0-2.923-3.159-1.306-10.451-1.741a1.5,1.5,0,0,0-1.5,1.5c.6,28.341-1.348,31.552,1.5,31.552h9.323c2.707,0,.984-3.817,1.5-16.381,0-5.19,1.5-6.206,4.093-6.206,2.869,0,3.351,1.993,3.351,6.458C28.291,37.117,26.581,40.91,29.278,40.91ZM24.426,15.32c-8.985,0-7.094,9.879-7.094,22.587H11.01V10.856h5.95v2.6a1.592,1.592,0,0,0,2.959.7,8.338,8.338,0,0,1,7.5-4.051c7.056,0,9.679,3.467,9.679,12.8V37.909H30.778c0-14.293,1.512-22.589-6.352-22.589Z" transform="translate(7.884 7.106)" fill="#0200e0" stroke="#fff" stroke-width="0.5"/>
    <path id="Path_8125" data-name="Path 8125" d="M1.921,7.508c-2.841,0-.9,3.171-1.5,31.552a1.5,1.5,0,0,0,1.5,1.5h9.333c2.841,0,.9-3.171,1.5-31.552,0-2.591-3.763-1.062-10.833-1.5ZM9.753,37.559H3.421V10.509H9.753Z" transform="translate(0.294 7.455)" fill="#0200e0" stroke="#fff" stroke-width="0.5"/>
    <path id="Path_8126" data-name="Path 8126" d="M6.876,0c-9.155,0-9.1,13.862,0,13.862S16.041,0,6.876,0Zm0,10.862C1.738,10.862,1.69,3,6.876,3S12.005,10.862,6.876,10.862Z" transform="translate(0)" fill="#0200e0" stroke="#fff" stroke-width="0.5"/>
  </g>
</svg>
