<svg xmlns="http://www.w3.org/2000/svg" width="48.621" height="48.095" viewBox="0 0 48.621 48.095">
  <g id="Group_1614" data-name="Group 1614" transform="translate(-100.338 -102.007)">
    <g id="Group_1613" data-name="Group 1613" transform="translate(100.709 102.256)">
      <path id="Path_3692" data-name="Path 3692" d="M147.423,137.523l-7.577-7.542a4.4,4.4,0,0,0-6.228,0h0l-4.336,4.336a.956.956,0,0,1-1.226.107,49.987,49.987,0,0,1-11.677-11.462.942.942,0,0,1,.1-1.226l4.443-4.437a4.4,4.4,0,0,0,0-6.217l-7.576-7.577a4.513,4.513,0,0,0-6.236,0l-2.4,2.4a13.469,13.469,0,0,0-3.339,13.739,40.408,40.408,0,0,0,4.929,9.993,52.392,52.392,0,0,0,15.126,14.856,38.559,38.559,0,0,0,11.205,4.983,12.971,12.971,0,0,0,3.124.377,13.63,13.63,0,0,0,9.6-4.041l2.061-2.061A4.4,4.4,0,0,0,147.423,137.523Zm-1.908,4.385h0l.014-.041-2.061,2.061a10.774,10.774,0,0,1-10.168,2.914,35.8,35.8,0,0,1-10.4-4.662,49.8,49.8,0,0,1-14.331-14.048,37.707,37.707,0,0,1-4.606-9.325,10.774,10.774,0,0,1,2.694-11l2.386-2.39a1.71,1.71,0,0,1,2.419,0h0l7.577,7.577a1.71,1.71,0,0,1,0,2.419h0l-4.445,4.445a3.623,3.623,0,0,0-.377,4.715,53.055,53.055,0,0,0,12.324,12.1,3.65,3.65,0,0,0,4.662-.4l4.3-4.363a1.71,1.71,0,0,1,2.419,0h0l7.577,7.6A1.71,1.71,0,0,1,145.516,141.908Z" transform="translate(-100.709 -102.256)" fill="#0200e0" stroke="#fff" stroke-width="0.5"/>
    </g>
  </g>
</svg>
