<svg xmlns="http://www.w3.org/2000/svg" width="42.281" height="42.281" viewBox="0 0 42.281 42.281">
  <g id="bond" transform="translate(-0.85 -0.85)">
    <path id="Path_3734" data-name="Path 3734" d="M31.708,42.452V41H30.354v1.452a1.925,1.925,0,0,0-.286,3.563l1.32.66a.578.578,0,0,1-.258,1.1h-.2a.58.58,0,0,1-.579-.578v-.776H29v.776a1.928,1.928,0,0,0,1.354,1.834V50.48h1.354V49.027a1.925,1.925,0,0,0,.286-3.563l-1.32-.66a.578.578,0,0,1,.258-1.1h.2a.58.58,0,0,1,.579.578v.1h1.354v-.1A1.929,1.929,0,0,0,31.708,42.452Z" transform="translate(-9.041 -12.915)" fill="#0200e0" stroke="#0200e0" stroke-width="0.3"/>
    <path id="Path_3735" data-name="Path 3735" d="M38.919,22.668V3.031A2.034,2.034,0,0,0,36.887,1H7.094A2.034,2.034,0,0,0,5.063,3.031V22.668H1V42.981H42.981V22.668ZM6.417,3.031a.678.678,0,0,1,.677-.677h3.782L6.417,6.814Zm0,5.7,6.374-6.374h2.148L6.417,10.876Zm0,4.063L16.854,2.354H36.887a.678.678,0,0,1,.677.677V22.668H32.147v-.677a2.029,2.029,0,0,0-1.354-1.907v-6.9h1.354V11.43L23.585,6.818a3.42,3.42,0,0,0-3.189,0L11.834,11.43v1.758h1.354v6.9a2.029,2.029,0,0,0-1.354,1.907v.677H6.417Zm7.522-.957,7.1-3.822a2.042,2.042,0,0,1,1.905,0l7.1,3.822Zm15.5,1.354v6.771H28.085V13.188Zm-2.708,0v6.771H24.022V13.188Zm-4.063,0v6.771H21.314V13.188Zm-2.708,0v6.771H17.251V13.188Zm-4.063,0v6.771H14.542V13.188Zm14.219,8.125a.678.678,0,0,1,.677.677v.677H13.188v-.677a.678.678,0,0,1,.677-.677ZM41.627,41.627H2.354V24.022H41.627Z" transform="translate(0 0)" fill="#0200e0" stroke="#0200e0" stroke-width="0.3"/>
    <path id="Path_3736" data-name="Path 3736" d="M41.564,37H5V51.9H41.564ZM6.354,38.354h2.64a3.4,3.4,0,0,1-2.64,2.64Zm0,12.188V47.9a3.4,3.4,0,0,1,2.64,2.64Zm4.009,0a4.743,4.743,0,0,0-4.009-4.009V42.363a4.743,4.743,0,0,0,4.009-4.009h8.65a7.43,7.43,0,0,0,0,12.188Zm6.825-6.094a6.094,6.094,0,1,1,6.094,6.094A6.1,6.1,0,0,1,17.188,44.448ZM40.21,50.542H37.57a3.4,3.4,0,0,1,2.64-2.64Zm0-4.009A4.743,4.743,0,0,0,36.2,50.542h-8.65a7.43,7.43,0,0,0,0-12.188H36.2a4.743,4.743,0,0,0,4.009,4.009Zm0-5.54a3.4,3.4,0,0,1-2.64-2.64h2.64Z" transform="translate(-1.292 -11.624)" fill="#0200e0" stroke="#0200e0" stroke-width="0.3"/>
    <path id="Path_3737" data-name="Path 3737" d="M49.063,9.063h1.354V5H45V6.354h4.063Z" transform="translate(-14.207 -1.292)" fill="#0200e0" stroke="#0200e0" stroke-width="0.3"/>
    <path id="Path_3738" data-name="Path 3738" d="M51,13h1.354v1.354H51Z" transform="translate(-16.144 -3.875)" fill="#0200e0" stroke="#0200e0" stroke-width="0.3"/>
  </g>
</svg>
