<svg xmlns="http://www.w3.org/2000/svg" width="75.034" height="28.043" viewBox="0 0 75.034 28.043">
  <g id="sports-car" transform="translate(0 -0.5)">
    <path id="Path_3730" data-name="Path 3730" d="M73.062,12.292c-4.205-2.95-10.152-3.569-14.4-3.569h-.931l-14.8-6.908A14.107,14.107,0,0,0,37,.5H23.933a9.278,9.278,0,0,0-3.672.753L6.695,7.067a5.912,5.912,0,0,1-2.344.481h-.9A3.452,3.452,0,0,0,0,11v7.462a3.454,3.454,0,0,0,2.79,3.385l4.35.846a6.97,6.97,0,0,0,12.938,2.329H57.306a6.966,6.966,0,0,0,12.113,0h2.167a3.453,3.453,0,0,0,3.449-3.449V16.083A4.636,4.636,0,0,0,73.062,12.292ZM42,3.808,52.534,8.723H36.848L31.683,2.7H37A11.9,11.9,0,0,1,42,3.808ZM28.788,2.7l5.165,6.025H32.09a2.422,2.422,0,0,1-1.842-.847L25.81,2.7ZM20.88,22.82a6.955,6.955,0,0,0-.025-2.644,1.1,1.1,0,1,0-2.154.437A4.775,4.775,0,1,1,14.021,16.8a4.739,4.739,0,0,1,1.915.4,1.1,1.1,0,0,0,.883-2.013A6.976,6.976,0,0,0,7.14,20.45l-3.93-.764A1.253,1.253,0,0,1,2.2,18.459V14.446H3.449a1.1,1.1,0,1,0,0-2.2H2.2V11a1.252,1.252,0,0,1,1.25-1.25h.9a8.109,8.109,0,0,0,3.21-.659L21.126,3.274a7.1,7.1,0,0,1,1.845-.509l5.608,6.542a4.617,4.617,0,0,0,3.51,1.615H58.663c2.937,0,8.178.344,12.061,2.5h-.313a1.1,1.1,0,0,0,0,2.2h2.38a2.437,2.437,0,0,1,.045.463v2.039H69.419a6.967,6.967,0,0,0-12.113,0H55.139a1.1,1.1,0,0,0,0,2.2H56.5a6.884,6.884,0,0,0,0,2.5Zm42.482,3.524a4.775,4.775,0,1,1,4.775-4.774A4.78,4.78,0,0,1,63.362,26.345Zm8.223-3.524H70.221a6.884,6.884,0,0,0,0-2.5h2.615v1.25A1.252,1.252,0,0,1,71.586,22.82Zm0,0" fill="#0200e0"/>
    <path id="Path_3731" data-name="Path 3731" d="M194.108,93.375H179.386l-2.49-3.32a3.466,3.466,0,0,0-2.759-1.38h-4.7a1.1,1.1,0,0,0-.879,1.759l2.819,3.759a3.464,3.464,0,0,0,2.759,1.38h19.972a1.1,1.1,0,0,0,0-2.2Zm-19.972,0a1.256,1.256,0,0,1-1-.5l-1.5-2h2.5a1.258,1.258,0,0,1,1,.5l1.5,2Zm0,0" transform="translate(-143.668 -75.254)" fill="#0200e0"/>
    <path id="Path_3732" data-name="Path 3732" d="M82.434,128.758a2.274,2.274,0,1,0,2.274,2.274A2.277,2.277,0,0,0,82.434,128.758Zm0,0" transform="translate(-68.413 -109.461)" fill="#0200e0"/>
    <path id="Path_3733" data-name="Path 3733" d="M419.114,128.758a2.274,2.274,0,1,0,2.274,2.274A2.277,2.277,0,0,0,419.114,128.758Zm0,0" transform="translate(-355.751 -109.461)" fill="#0200e0"/>
  </g>
</svg>
