<svg xmlns="http://www.w3.org/2000/svg" width="43.174" height="43.174" viewBox="0 0 43.174 43.174">
  <g id="building" transform="translate(0.15 0.15)">
    <g id="Group_1973" data-name="Group 1973">
      <g id="Group_1972" data-name="Group 1972">
        <path id="Path_3750" data-name="Path 3750" d="M42.159,41.445H37.872V17.864a.715.715,0,0,0-.715-.715h-10V.715A.715.715,0,0,0,26.439,0H7.86a.715.715,0,0,0-.715.715v40.73H.715a.715.715,0,1,0,0,1.429H42.159a.715.715,0,1,0,0-1.429Zm-27.153,0H12.148V35.014a.715.715,0,0,1,.715-.715h1.429a.715.715,0,0,1,.715.715Zm2.858-23.581V41.445H16.435V35.014a2.144,2.144,0,0,0-2.144-2.144H12.862a2.144,2.144,0,0,0-2.144,2.144v6.431H8.575V1.429h17.15V17.15H18.579A.715.715,0,0,0,17.864,17.864ZM36.443,41.445H19.293V18.579h17.15Z" fill="#0200e0" stroke="#0200e0" stroke-width="0.3"/>
        <path id="Path_3751" data-name="Path 3751" d="M205,112h-4.287a.715.715,0,0,0-.715.715V117a.715.715,0,0,0,.715.715H205a.715.715,0,0,0,.715-.715v-4.287A.715.715,0,0,0,205,112Zm-.715,4.287h-2.858v-2.858h2.858Z" transform="translate(-182.136 -101.996)" fill="#0200e0" stroke="#0200e0" stroke-width="0.3"/>
        <path id="Path_3752" data-name="Path 3752" d="M205,32h-4.287a.715.715,0,0,0-.715.715V37a.715.715,0,0,0,.715.715H205a.715.715,0,0,0,.715-.715V32.715A.715.715,0,0,0,205,32Zm-.715,4.287h-2.858V33.429h2.858Z" transform="translate(-182.136 -29.142)" fill="#0200e0" stroke="#0200e0" stroke-width="0.3"/>
        <path id="Path_3753" data-name="Path 3753" d="M125,112h-4.287a.715.715,0,0,0-.715.715V117a.715.715,0,0,0,.715.715H125a.715.715,0,0,0,.715-.715v-4.287A.715.715,0,0,0,125,112Zm-.715,4.287h-2.858v-2.858h2.858Z" transform="translate(-109.282 -101.996)" fill="#0200e0" stroke="#0200e0" stroke-width="0.3"/>
        <path id="Path_3754" data-name="Path 3754" d="M125,32h-4.287a.715.715,0,0,0-.715.715V37a.715.715,0,0,0,.715.715H125a.715.715,0,0,0,.715-.715V32.715A.715.715,0,0,0,125,32Zm-.715,4.287h-2.858V33.429h2.858Z" transform="translate(-109.282 -29.142)" fill="#0200e0" stroke="#0200e0" stroke-width="0.3"/>
        <path id="Path_3755" data-name="Path 3755" d="M125,192h-4.287a.715.715,0,0,0-.715.715V197a.715.715,0,0,0,.715.715H125a.715.715,0,0,0,.715-.715v-4.287A.715.715,0,0,0,125,192Zm-.715,4.287h-2.858v-2.858h2.858Z" transform="translate(-109.282 -174.85)" fill="#0200e0" stroke="#0200e0" stroke-width="0.3"/>
        <path id="Path_3756" data-name="Path 3756" d="M125,272h-4.287a.715.715,0,0,0-.715.715V277a.715.715,0,0,0,.715.715H125a.715.715,0,0,0,.715-.715v-4.287A.715.715,0,0,0,125,272Zm-.715,4.287h-2.858v-2.858h2.858Z" transform="translate(-109.282 -247.705)" fill="#0200e0" stroke="#0200e0" stroke-width="0.3"/>
        <path id="Path_3757" data-name="Path 3757" d="M320.715,309.717H325a.715.715,0,0,0,.715-.715v-4.287A.715.715,0,0,0,325,304h-4.287a.715.715,0,0,0-.715.715V309A.715.715,0,0,0,320.715,309.717Zm.715-4.287h2.858v2.858h-2.858Z" transform="translate(-291.417 -276.847)" fill="#0200e0" stroke="#0200e0" stroke-width="0.3"/>
        <path id="Path_3758" data-name="Path 3758" d="M320.715,229.717H325a.715.715,0,0,0,.715-.715v-4.287A.715.715,0,0,0,325,224h-4.287a.715.715,0,0,0-.715.715V229A.715.715,0,0,0,320.715,229.717Zm.715-4.287h2.858v2.858h-2.858Z" transform="translate(-291.417 -203.992)" fill="#0200e0" stroke="#0200e0" stroke-width="0.3"/>
        <path id="Path_3759" data-name="Path 3759" d="M320.715,389.717H325a.715.715,0,0,0,.715-.715v-4.287A.715.715,0,0,0,325,384h-4.287a.715.715,0,0,0-.715.715V389A.715.715,0,0,0,320.715,389.717Zm.715-4.287h2.858v2.858h-2.858Z" transform="translate(-291.417 -349.701)" fill="#0200e0" stroke="#0200e0" stroke-width="0.3"/>
        <path id="Path_3760" data-name="Path 3760" d="M240.715,309.717H245a.715.715,0,0,0,.715-.715v-4.287A.715.715,0,0,0,245,304h-4.287a.715.715,0,0,0-.715.715V309A.715.715,0,0,0,240.715,309.717Zm.715-4.287h2.858v2.858h-2.858Z" transform="translate(-218.563 -276.847)" fill="#0200e0" stroke="#0200e0" stroke-width="0.3"/>
        <path id="Path_3761" data-name="Path 3761" d="M240.715,229.717H245a.715.715,0,0,0,.715-.715v-4.287A.715.715,0,0,0,245,224h-4.287a.715.715,0,0,0-.715.715V229A.715.715,0,0,0,240.715,229.717Zm.715-4.287h2.858v2.858h-2.858Z" transform="translate(-218.563 -203.992)" fill="#0200e0" stroke="#0200e0" stroke-width="0.3"/>
        <path id="Path_3762" data-name="Path 3762" d="M240.715,389.717H245a.715.715,0,0,0,.715-.715v-4.287A.715.715,0,0,0,245,384h-4.287a.715.715,0,0,0-.715.715V389A.715.715,0,0,0,240.715,389.717Zm.715-4.287h2.858v2.858h-2.858Z" transform="translate(-218.563 -349.701)" fill="#0200e0" stroke="#0200e0" stroke-width="0.3"/>
      </g>
    </g>
  </g>
</svg>
