<svg xmlns="http://www.w3.org/2000/svg" width="45.026" height="48.211" viewBox="0 0 45.026 48.211">
  <g id="Oil_Gold" data-name="Oil, Gold" transform="translate(0.25 0.25)">
    <g id="_004---Oil-Maintenance-" data-name="004---Oil-Maintenance-" transform="translate(0 0)">
      <path id="Shape" d="M1.366,25.531l2.99.428A18.014,18.014,0,0,0,6.99,32.307L5.182,34.722A1.583,1.583,0,0,0,5.322,36.8l2.4,2.4a1.59,1.59,0,0,0,1.125.465,1.543,1.543,0,0,0,.947-.318l2.422-1.813c.173.114.347.21.52.318-.006.106-.015.213-.015.313a9.541,9.541,0,1,0,19.082,0c0-.1-.009-.208-.015-.313.173-.1.347-.2.52-.318l2.413,1.806a1.583,1.583,0,0,0,2.081-.139l2.4-2.4a1.58,1.58,0,0,0,.146-2.072l-1.814-2.423a18.014,18.014,0,0,0,2.633-6.349l2.99-.428a1.6,1.6,0,0,0,1.366-1.576V20.569a1.6,1.6,0,0,0-1.366-1.574l-2.99-.428a18.014,18.014,0,0,0-2.633-6.349L39.343,9.8A1.583,1.583,0,0,0,39.2,7.723l-2.4-2.4a1.581,1.581,0,0,0-2.072-.146L32.307,6.99a18.014,18.014,0,0,0-6.349-2.633l-.428-2.99A1.6,1.6,0,0,0,23.956,0H20.569a1.6,1.6,0,0,0-1.574,1.366l-.428,2.99A18.014,18.014,0,0,0,12.218,6.99L9.8,5.182a1.584,1.584,0,0,0-2.081.139l-2.4,2.4a1.58,1.58,0,0,0-.146,2.072L6.99,12.218a18.014,18.014,0,0,0-2.633,6.349l-2.99.428A1.6,1.6,0,0,0,0,20.569v3.387a1.6,1.6,0,0,0,1.366,1.574Zm20.9,20.585a7.96,7.96,0,0,1-7.951-7.951,4.672,4.672,0,0,1,.053-.629v-.048c.57-3.863,5.458-11.777,7.9-15.225,2.443,3.448,7.33,11.363,7.9,15.225a.194.194,0,0,0,0,.048,4.672,4.672,0,0,1,.051.629A7.96,7.96,0,0,1,22.263,46.116ZM11.927,22.263a10.336,10.336,0,1,1,17.015,7.866,94.467,94.467,0,0,0-5.38-8.785,1.585,1.585,0,0,0-2.59,0,94.188,94.188,0,0,0-5.388,8.785,10.336,10.336,0,0,1-3.657-7.866ZM1.59,20.569l3.555-.509a.8.8,0,0,0,.671-.653,16.459,16.459,0,0,1,2.8-6.753.8.8,0,0,0-.014-.934L6.445,8.847l2.4-2.4L11.721,8.6a.8.8,0,0,0,.934.014,16.459,16.459,0,0,1,6.753-2.8.8.8,0,0,0,.653-.671l.509-3.556h3.387l.509,3.555a.8.8,0,0,0,.653.671,16.459,16.459,0,0,1,6.753,2.8.8.8,0,0,0,.934-.014l2.873-2.157,2.4,2.4L35.923,11.72a.8.8,0,0,0-.014.934,16.459,16.459,0,0,1,2.8,6.753.8.8,0,0,0,.671.653l3.556.51v3.387l-3.555.509a.8.8,0,0,0-.671.653,16.459,16.459,0,0,1-2.8,6.753.8.8,0,0,0,.014.934l2.157,2.873-2.4,2.4-2.878-2.155a.8.8,0,0,0-.938-.011c-.124.088-.248.168-.373.251a26.26,26.26,0,0,0-1.82-4.59,11.927,11.927,0,1,0-14.822,0,26.26,26.26,0,0,0-1.82,4.59c-.125-.08-.249-.159-.373-.251a.8.8,0,0,0-.938.011L8.847,38.08l-2.4-2.4L8.6,32.805a.8.8,0,0,0,.014-.934,16.459,16.459,0,0,1-2.8-6.753.8.8,0,0,0-.671-.653L1.59,23.956Z" transform="translate(0 0)" fill="#0200e0" stroke="#0200e0" stroke-width="0.5"/>
      <path id="Shape-2" data-name="Shape" d="M26.361,52.566A4.775,4.775,0,0,1,21.59,47.8a.8.8,0,1,0-1.59,0,6.368,6.368,0,0,0,6.361,6.361.8.8,0,1,0,0-1.59Z" transform="translate(-4.098 -9.63)" fill="#0200e0" stroke="#0200e0" stroke-width="0.5"/>
      <path id="Shape-3" data-name="Shape" d="M9.8,25a.8.8,0,0,0,.8-.8A13.437,13.437,0,0,1,21.012,11.06a.8.8,0,0,0-.36-1.549A15.018,15.018,0,0,0,9,24.207a.8.8,0,0,0,.8.8Z" transform="translate(-1.844 -1.945)" fill="#0200e0" stroke="#0200e0" stroke-width="0.5"/>
      <ellipse id="Oval" cx="1.233" cy="0.617" rx="1.233" ry="0.617" transform="translate(21.029 6.583)" fill="#0200e0" stroke="#0200e0" stroke-width="0.5"/>
    </g>
  </g>
</svg>
