<svg xmlns="http://www.w3.org/2000/svg" width="44.976" height="42.623" viewBox="0 0 44.976 42.623">
  <g id="house" transform="translate(0.25 -14.047)">
    <g id="Group_1971" data-name="Group 1971" transform="translate(0 14.457)">
      <g id="Group_1966" data-name="Group 1966" transform="translate(0 0)">
        <g id="Group_1965" data-name="Group 1965">
          <path id="Path_3745" data-name="Path 3745" d="M122.191,149.281h21.66a.869.869,0,0,0,.581-1.515l-10.83-9.737a.869.869,0,0,0-1.161,0l-10.83,9.737a.869.869,0,0,0,.581,1.515Zm11.7-1.737v-6.92l7.7,6.92Zm-1.737-6.92v6.92h-7.7Z" transform="translate(-110.784 -127.092)" fill="#0200e0" stroke="#0200e0" stroke-width="0.5"/>
          <path id="Path_3746" data-name="Path 3746" d="M40.046,49.066a4.4,4.4,0,0,0-.733.062v-11.4a3.411,3.411,0,0,0,1.744.478h0A3.424,3.424,0,0,0,43.6,37.078a3.409,3.409,0,0,0-.252-4.82l-3.761-3.382v-8.05a.869.869,0,0,0-.869-.869H33.067a.869.869,0,0,0-.869.869v1.411l-7.675-6.9a3.411,3.411,0,0,0-4.569,0l-6.976,6.214a.869.869,0,0,0,1.156,1.3l6.979-6.217a1.678,1.678,0,0,1,2.249,0L42.182,33.55a1.671,1.671,0,0,1,.124,2.364,1.682,1.682,0,0,1-2.373.124L22.818,20.649a.869.869,0,0,0-1.161,0L4.541,36.038a1.684,1.684,0,0,1-2.373-.124A1.672,1.672,0,0,1,2.3,33.547L8.3,28.1a.869.869,0,0,0-1.167-1.287L1.131,32.258a3.409,3.409,0,0,0-.252,4.82,3.426,3.426,0,0,0,4.283.65v11.4A4.428,4.428,0,0,0,.815,56.054a.868.868,0,0,0,.708.366H42.951a.868.868,0,0,0,.708-.366,4.429,4.429,0,0,0-3.614-6.988Zm-6.11-27.371h3.909v5.619L33.936,23.8ZM6.9,36.254,22.237,22.463,37.576,36.254V49.821a4.443,4.443,0,0,0-.944.853,2.567,2.567,0,0,0-1.9.342,3.035,3.035,0,0,0-4.843.3.869.869,0,0,0-.144.48v2.891h-2.4V48.87a5.1,5.1,0,1,0-10.206,0v5.813h-2.4V51.792a.869.869,0,0,0-.144-.48,3.035,3.035,0,0,0-4.843-.3,2.567,2.567,0,0,0-1.9-.342,4.441,4.441,0,0,0-.944-.853V36.254ZM2.013,54.683a2.692,2.692,0,0,1,4.75-2.529.869.869,0,0,0,1.193.315.81.81,0,0,1,.416-.113.823.823,0,0,1,.759.5.869.869,0,0,0,1.649-.152A1.3,1.3,0,0,1,13,52.09v2.593H2.013Zm16.859,0V48.87a3.366,3.366,0,0,1,6.731,0v5.813Zm23.59,0H31.479V52.09a1.3,1.3,0,0,1,2.214.617.869.869,0,0,0,1.649.152.823.823,0,0,1,.759-.5.81.81,0,0,1,.416.113.869.869,0,0,0,1.193-.315,2.692,2.692,0,0,1,4.75,2.529Z" transform="translate(0 -14.457)" fill="#0200e0" stroke="#0200e0" stroke-width="0.5"/>
        </g>
      </g>
      <g id="Group_1968" data-name="Group 1968" transform="translate(9.76 9.512)">
        <g id="Group_1967" data-name="Group 1967">
          <path id="Path_3747" data-name="Path 3747" d="M113.223,125.693a.868.868,0,1,1,.851-.7A.876.876,0,0,1,113.223,125.693Z" transform="translate(-112.356 -123.959)" fill="#0200e0" stroke="#0200e0" stroke-width="0.5"/>
        </g>
      </g>
      <g id="Group_1969" data-name="Group 1969" transform="translate(9.703 24.337)">
        <path id="Path_3748" data-name="Path 3748" d="M118.63,301.563h-6.058a.869.869,0,0,1-.869-.869V295.5a.869.869,0,0,1,.869-.869h6.058a.869.869,0,0,1,.869.869v5.19A.869.869,0,0,1,118.63,301.563Zm-5.19-1.737h4.321v-3.452H113.44Z" transform="translate(-111.703 -294.636)" fill="#0200e0" stroke="#0200e0" stroke-width="0.5"/>
      </g>
      <g id="Group_1970" data-name="Group 1970" transform="translate(26.976 24.337)">
        <path id="Path_3749" data-name="Path 3749" d="M317.481,301.563h-6.058a.869.869,0,0,1-.869-.869V295.5a.869.869,0,0,1,.869-.869h6.058a.869.869,0,0,1,.869.869v5.19A.869.869,0,0,1,317.481,301.563Zm-5.19-1.737h4.321v-3.452h-4.321Z" transform="translate(-310.554 -294.636)" fill="#0200e0" stroke="#0200e0" stroke-width="0.5"/>
      </g>
    </g>
  </g>
</svg>
