<svg xmlns="http://www.w3.org/2000/svg" width="36.062" height="36.061" viewBox="0 0 36.062 36.061">
  <g id="Savings" transform="translate(0.001 -0.003)">
    <path id="Path_3763" data-name="Path 3763" d="M36.055,8.915a1.058,1.058,0,0,0-.233-.565c-.053-.064.485.478-8.03-8.037A1.065,1.065,0,0,0,27.045,0H3.168A3.173,3.173,0,0,0,0,3.172V32.895a3.173,3.173,0,0,0,3.169,3.169H32.891a3.173,3.173,0,0,0,3.169-3.169c0-25.65,0-23.9-.005-23.98ZM24.3,2.116v6.9a1.058,1.058,0,0,1-1.056,1.056H21.9V2.116Zm-4.508,0v7.959H10A1.058,1.058,0,0,1,8.944,9.018v-6.9Zm4.508,20.5H8.944V21.273A1.058,1.058,0,0,1,10,20.217H23.242A1.058,1.058,0,0,1,24.3,21.273ZM8.944,33.951V24.725H24.3v9.227Zm25-1.056a1.058,1.058,0,0,1-1.056,1.056h-6.48V21.273A3.173,3.173,0,0,0,23.242,18.1H10a3.173,3.173,0,0,0-3.169,3.169V33.951H3.169a1.058,1.058,0,0,1-1.056-1.056V3.172A1.058,1.058,0,0,1,3.169,2.116H6.831v6.9A3.173,3.173,0,0,0,10,12.188H23.242a3.173,3.173,0,0,0,3.169-3.169v-6.9h.2l7.34,7.34Z" transform="translate(0 0)" fill="#0200e0"/>
  </g>
</svg>
