<svg xmlns="http://www.w3.org/2000/svg" width="40.481" height="40.481" viewBox="0 0 40.481 40.481">
  <g id="stock" transform="translate(0.25 0.25)">
    <path id="Path_3739" data-name="Path 3739" d="M33.343,122.343H31v9.371h2.343v2.343h2.343v-2.343h2.343v-9.371H35.685V120H33.343Zm2.343,7.028H33.343v-4.685h2.343Z" transform="translate(-28.579 -110.629)" fill="#0200e0" stroke="#fff" stroke-width="0.5"/>
    <path id="Path_3740" data-name="Path 3740" d="M155.685,74.056V71.713h2.343V62.343h-2.343V60h-2.343v2.343H151v9.371h2.343v2.343Zm-2.343-9.371h2.343v4.685h-2.343Z" transform="translate(-139.209 -55.315)" fill="#0200e0" stroke="#fff" stroke-width="0.5"/>
    <path id="Path_3741" data-name="Path 3741" d="M275.685,44.056V41.713h2.343V32.343h-2.343V30h-2.343v2.343H271v9.371h2.343v2.343Zm-2.343-9.371h2.343v4.685h-2.343Z" transform="translate(-249.838 -27.657)" fill="#0200e0" stroke="#fff" stroke-width="0.5"/>
    <path id="Path_3742" data-name="Path 3742" d="M395.685,14.056V11.713h2.343V2.343h-2.343V0h-2.343V2.343H391v9.371h2.343v2.343Zm-2.343-9.371h2.343V9.371h-2.343Z" transform="translate(-360.467)" fill="#0200e0" stroke="#fff" stroke-width="0.5"/>
    <path id="Path_3743" data-name="Path 3743" d="M16,207.179h9.647l9.371-4.685h9.371l6.37-3.185-.472,2.018,2.281.533,1.261-5.4-5.073-2.229-.942,2.145,1.9.834-5.876,2.938H34.465l-9.371,4.685H16Z" transform="translate(-14.751 -179.068)" fill="#0200e0" stroke="#fff" stroke-width="0.5"/>
    <path id="Path_3744" data-name="Path 3744" d="M37.56,330H30.533v11.869H28.19V330H21.162v11.869H18.819V331.619l-7.028,3.514v6.737H9.449v-7.184H2.421v7.184H0v2.343H39.981v-2.343H37.56Zm-4.685,2.343h2.343v9.527H32.875Zm-9.371,0h2.343v9.527H23.5Zm-9.371,4.238,2.343-1.171v6.46H14.134Zm-9.371.447H7.106v4.841H4.763Z" transform="translate(0 -304.231)" fill="#0200e0" stroke="#fff" stroke-width="0.5"/>
  </g>
</svg>
