<svg width="287" height="31" viewBox="0 0 287 31" fill="none" xmlns="http://www.w3.org/2000/svg">
<path d="M60.5073 16.4601C60.5073 17.3882 60.5073 18.3156 60.5073 19.2437C60.5073 20.1718 60.391 21.1008 60.275 21.9129C60.159 22.725 59.9274 23.6526 59.5794 24.3487C59.2314 25.1608 58.6515 25.8573 58.0715 26.5534C57.2594 27.3654 56.3313 27.9455 55.1712 28.2935C54.0111 28.6416 52.8503 28.8736 51.5742 28.8736H42.6411V4.04663H51.5742C52.8503 4.04663 54.1271 4.27866 55.1712 4.62669C56.3313 4.97473 57.2594 5.55478 58.0715 6.36686C58.7676 7.06296 59.2314 7.75946 59.5794 8.57156C59.9274 9.38366 60.159 10.0793 60.275 11.0074C60.391 11.8194 60.5073 12.7478 60.5073 13.5598C60.5073 14.6039 60.5073 15.532 60.5073 16.4601ZM55.6346 16.4601C55.6346 15.532 55.6346 14.7193 55.6346 14.0232C55.6346 13.3271 55.519 12.7471 55.519 12.283C55.403 11.819 55.2872 11.3554 55.1712 11.0074C55.0552 10.6593 54.8232 10.3115 54.5911 10.0795C54.1271 9.61546 53.6621 9.15136 53.0821 8.91936C52.502 8.68736 51.8062 8.57156 50.9941 8.57156H47.3982V24.6965H50.9941C51.8062 24.6965 52.502 24.5807 53.0821 24.3487C53.6621 24.1167 54.1271 23.7686 54.5911 23.1886C55.0552 22.6085 55.2863 21.9124 55.4023 20.8683C55.6343 19.8242 55.6346 18.3163 55.6346 16.4601Z" fill="#232020"/>
<path d="M79.1847 28.9893L77.6768 24.581H68.8604L67.3524 28.9893H62.363L71.4128 4.16235H75.241L84.2897 28.9893H79.1847ZM73.3841 11.472L70.2527 20.5206H76.4011L73.3841 11.472Z" fill="#232020"/>
<path d="M104.476 16.5757C104.476 17.6198 104.476 18.6646 104.476 19.5927C104.476 20.5208 104.36 21.3319 104.244 22.144C104.128 22.9561 103.895 23.7682 103.547 24.4642C103.199 25.1603 102.736 25.8566 102.156 26.4367C101.228 27.3648 100.3 27.945 99.2556 28.4091C98.2115 28.8731 96.9351 29.1047 95.543 29.1047C94.1508 29.1047 92.8745 28.8731 91.8304 28.4091C90.7863 27.945 89.7422 27.2488 88.9301 26.4367C88.35 25.8566 87.7698 25.1603 87.5377 24.4642C87.1897 23.7682 86.9581 22.9561 86.8421 22.144C86.7261 21.3319 86.6099 20.4048 86.6099 19.5927C86.6099 18.6646 86.6099 17.6198 86.6099 16.5757C86.6099 15.5316 86.6099 14.4879 86.6099 13.5598C86.6099 12.6318 86.7261 11.8194 86.8421 11.0074C86.9581 10.1953 87.1897 9.38316 87.5377 8.68706C87.8858 7.99106 88.35 7.29476 88.9301 6.71466C89.8582 5.78658 90.7863 5.2063 91.8304 4.74225C92.8745 4.2782 94.1508 4.04663 95.543 4.04663C96.9351 4.04663 98.2115 4.2782 99.2556 4.74225C100.3 5.2063 101.344 5.90259 102.156 6.71466C102.736 7.29476 103.315 7.99106 103.547 8.68706C103.895 9.38316 104.128 10.1953 104.244 11.0074C104.36 11.8194 104.476 12.7478 104.476 13.5598C104.476 14.3719 104.476 15.5316 104.476 16.5757ZM99.6034 16.5757C99.6034 15.4156 99.6034 14.3715 99.6034 13.6754C99.6034 12.9793 99.4871 12.283 99.3711 11.703C99.2551 11.2389 99.1393 10.7753 99.0233 10.4273C98.9073 10.0793 98.6753 9.84696 98.4433 9.61496C98.0952 9.26696 97.6305 8.91916 97.1665 8.68706C96.5864 8.45506 96.0063 8.33926 95.4263 8.33926C94.7302 8.33926 94.1506 8.45506 93.5706 8.68706C92.9905 8.91916 92.6429 9.26696 92.2949 9.61496C92.0629 9.84696 91.8308 10.1953 91.7148 10.4273C91.5988 10.7753 91.4819 11.1229 91.3659 11.703C91.2499 12.167 91.2508 12.8633 91.1348 13.6754C91.1348 14.4875 91.1348 15.4156 91.1348 16.5757C91.1348 17.7358 91.1348 18.7799 91.1348 19.476C91.1348 20.2881 91.2499 20.8683 91.3659 21.4484C91.4819 21.9124 91.5988 22.376 91.7148 22.7241C91.8308 23.0721 92.0629 23.3044 92.2949 23.5364C92.6429 23.8844 93.1065 24.2322 93.5706 24.4642C94.1506 24.6963 94.7302 24.8132 95.4263 24.8132C96.1224 24.8132 96.7024 24.6963 97.1665 24.4642C97.6305 24.2322 98.0952 23.8844 98.4433 23.5364C98.6753 23.3044 98.9073 22.9561 99.0233 22.7241C99.1393 22.376 99.2551 22.0285 99.3711 21.4484C99.4871 20.9844 99.4874 20.2881 99.6034 19.476C99.7194 18.6639 99.6034 17.7358 99.6034 16.5757Z" fill="#232020"/>
<path d="M134.175 11.4719C134.175 12.516 134.058 13.4434 133.71 14.2555C133.362 15.0676 132.898 15.7634 132.202 16.3435C131.622 16.9235 130.811 17.3878 129.999 17.7358C129.187 18.0839 128.142 18.2003 127.098 18.2003H120.949V27.7135H118.513V4.62671H127.098C128.142 4.62671 129.187 4.74318 129.999 5.09121C130.927 5.43925 131.622 5.90239 132.202 6.48246C132.782 7.06246 133.362 7.75946 133.71 8.57156C134.058 9.38366 134.175 10.4278 134.175 11.4719ZM131.622 11.4719C131.622 9.96366 131.158 8.80356 130.23 7.99146C129.302 7.17946 128.142 6.83136 126.634 6.83136H120.718V15.9957H126.634C128.142 15.9957 129.302 15.6476 130.23 14.8355C131.158 14.1395 131.622 12.98 131.622 11.4719Z" fill="#232020"/>
<path d="M153.781 27.8289L148.56 17.6202H142.991V27.8289H140.555V4.74219H149.372C150.416 4.74219 151.344 4.85866 152.156 5.20669C152.968 5.55473 153.665 5.90231 154.361 6.4824C154.941 7.0624 155.404 7.7594 155.752 8.5715C156.1 9.3836 156.217 10.3114 156.217 11.2395C156.217 12.9797 155.752 14.2554 154.824 15.4155C153.896 16.4596 152.737 17.1554 151.228 17.5035L156.681 27.9445H153.781V27.8289ZM153.664 11.1228C153.664 9.7307 153.201 8.5708 152.389 7.8747C151.576 7.1787 150.416 6.8313 149.024 6.8313H142.875V15.2999H149.024C150.416 15.2999 151.46 14.9514 152.389 14.2554C153.317 13.6753 153.664 12.631 153.664 11.1228Z" fill="#232020"/>
<path d="M178.723 16.228C178.723 17.5041 178.723 18.548 178.723 19.4761C178.723 20.4042 178.607 21.217 178.491 21.913C178.375 22.6091 178.142 23.3043 177.794 23.8843C177.446 24.4644 177.099 25.0444 176.519 25.6245C175.707 26.4366 174.895 27.0166 173.851 27.3647C172.807 27.8287 171.763 27.9447 170.603 27.9447C168.282 27.9447 166.31 27.1331 164.685 25.5089C164.105 24.9289 163.758 24.3488 163.41 23.7688C163.062 23.1887 162.945 22.4924 162.713 21.7963C162.597 21.1003 162.482 20.2886 162.482 19.3605C162.482 18.4324 162.482 17.3886 162.482 16.1124C162.482 14.8363 162.482 13.7913 162.482 12.8632C162.482 11.9351 162.597 11.1235 162.713 10.4274C162.829 9.73141 163.062 9.03511 163.41 8.45501C163.758 7.87491 164.105 7.29491 164.685 6.71481C166.31 5.09068 168.282 4.27905 170.603 4.27905C172.923 4.27905 174.895 5.09068 176.519 6.71481C177.099 7.29491 177.446 7.87491 177.794 8.45501C178.142 9.03511 178.259 9.73141 178.491 10.4274C178.607 11.1235 178.723 11.9351 178.723 12.8632C178.723 13.9073 178.723 15.0679 178.723 16.228ZM176.287 16.228C176.287 15.0679 176.287 14.0242 176.287 13.2122C176.287 12.4001 176.17 11.7031 176.054 11.123C175.938 10.543 175.823 10.0792 175.591 9.61511C175.359 9.15111 175.127 8.80301 174.663 8.45501C174.199 7.99101 173.618 7.52691 172.806 7.29491C172.11 6.94691 171.415 6.83151 170.603 6.83151C169.791 6.83151 169.094 6.94691 168.398 7.29491C167.702 7.64291 167.122 7.99101 166.542 8.45501C166.194 8.80301 165.845 9.26711 165.613 9.61511C165.381 9.96321 165.266 10.543 165.15 11.123C165.034 11.7031 164.918 12.4001 164.918 13.2122C164.918 14.0242 164.918 15.0679 164.918 16.228C164.918 17.3881 164.918 18.4318 164.918 19.2438C164.918 20.0559 165.034 20.7529 165.15 21.333C165.266 21.913 165.381 22.3768 165.613 22.8409C165.845 23.3049 166.078 23.653 166.542 24.001C167.006 24.465 167.586 24.9291 168.398 25.1611C169.094 25.5092 169.791 25.6245 170.603 25.6245C171.415 25.6245 172.11 25.5092 172.806 25.1611C173.502 24.8131 174.083 24.465 174.663 24.001C175.011 23.653 175.359 23.1889 175.591 22.8409C175.823 22.3768 175.938 21.913 176.054 21.333C176.17 20.7529 176.287 20.0559 176.287 19.2438C176.17 18.5478 176.287 17.5041 176.287 16.228Z" fill="#232020"/>
<path d="M201.926 11.4719C201.926 12.516 201.809 13.4434 201.461 14.2555C201.113 15.0676 200.649 15.7634 199.953 16.3435C199.373 16.9235 198.561 17.3878 197.749 17.7358C196.937 18.0839 195.892 18.2003 194.848 18.2003H188.7V27.7135H186.264V4.62671H194.848C195.892 4.62671 196.937 4.74318 197.749 5.09121C198.677 5.43925 199.373 5.90239 199.953 6.48246C200.533 7.06246 201.113 7.75946 201.461 8.57156C201.809 9.38366 201.926 10.4278 201.926 11.4719ZM199.373 11.4719C199.373 9.96366 198.909 8.80356 197.981 7.99146C197.053 7.17946 195.893 6.83136 194.385 6.83136H188.468V15.9957H194.385C195.893 15.9957 197.053 15.6476 197.981 14.8355C199.025 14.1395 199.373 12.98 199.373 11.4719Z" fill="#232020"/>
<path d="M215.035 6.9469V27.8289H212.598V6.9469H205.869V4.74219H221.763V6.9469H215.035Z" fill="#232020"/>
<path d="M227.679 27.8289V4.74219H242.065V6.9469H230.232V15.0677H240.325V17.2723H230.232V25.6243H242.065V27.8289H227.679Z" fill="#232020"/>
<path d="M263.063 24.0009C262.599 24.813 262.019 25.6244 261.323 26.2044C260.627 26.7845 259.815 27.2488 258.887 27.5968C257.959 27.9448 257.031 28.0613 255.987 28.0613C254.827 28.0613 253.783 27.8293 252.739 27.4812C251.694 27.0172 250.883 26.4371 250.071 25.7411C249.49 25.161 249.142 24.581 248.794 24.0009C248.446 23.4208 248.33 22.7245 248.098 22.0285C247.982 21.3324 247.866 20.5208 247.866 19.5927C247.866 18.6646 247.866 17.6196 247.866 16.3435C247.866 15.0673 247.866 14.0235 247.866 13.0954C247.866 12.1673 247.982 11.3556 248.098 10.6596C248.214 9.96346 248.446 9.26716 248.794 8.68716C249.142 8.10706 249.49 7.52696 250.071 6.94696C250.883 6.13486 251.694 5.5548 252.739 5.20677C253.783 4.74272 254.827 4.62671 255.987 4.62671C257.031 4.62671 257.959 4.74318 258.887 5.09121C259.815 5.43925 260.627 5.90239 261.323 6.48246C262.019 7.06246 262.599 7.75906 263.063 8.68716C263.527 9.49916 263.875 10.5433 264.107 11.5874H261.555C261.207 10.1953 260.627 9.03466 259.699 8.22266C258.771 7.41056 257.494 6.94696 256.102 6.94696C255.29 6.94696 254.595 7.06336 253.899 7.41146C253.203 7.64346 252.622 8.10756 252.042 8.57156C251.694 8.91956 251.346 9.38366 251.114 9.73166C250.882 10.1958 250.767 10.6596 250.651 11.2396C250.535 11.8197 250.418 12.5155 250.418 13.3276C250.418 14.1397 250.418 15.1833 250.418 16.3435C250.418 17.5036 250.418 18.5484 250.418 19.3604C250.418 20.1725 250.535 20.8684 250.651 21.4484C250.767 22.0285 250.882 22.6083 251.114 22.9563C251.346 23.4204 251.578 23.7684 252.042 24.1165C252.506 24.5805 253.087 25.0446 253.899 25.2766C254.595 25.5086 255.29 25.7411 256.102 25.7411C257.61 25.7411 258.771 25.2763 259.699 24.4643C260.627 23.6522 261.324 22.4928 261.672 21.1006H264.107C263.759 22.2607 263.527 23.1888 263.063 24.0009Z" fill="#232020"/>
<path d="M284.525 27.8289V17.2723H273.504V27.8289H271.068V4.74219H273.504V15.0677H284.525V4.74219H286.962V27.8289H284.525Z" fill="#232020"/>
<path d="M19.722 25.2905V13.9214L9.86098 8.23682L0 13.9214L19.722 25.2905Z" fill="#0200E0"/>
<path d="M0 13.9211V25.2903L9.86098 30.9749L19.722 25.2903L0 13.9211Z" fill="#3268FC"/>
<path d="M9.86096 5.68457V17.0537L19.7219 22.7383L29.5829 17.0537L9.86096 5.68457Z" fill="#0200E0"/>
<path d="M29.4669 17.0537V5.68459L19.7219 0L9.86096 5.68459L29.4669 17.0537Z" fill="#3268FC"/>
<path d="M9.86096 5.68459L19.7219 0V25.2906L9.86096 30.9751V5.68459Z" fill="url(#paint0_linear_3006_36732)"/>
<defs>
<linearGradient id="paint0_linear_3006_36732" x1="14.8078" y1="31.007" x2="14.8078" y2="-0.0109598" gradientUnits="userSpaceOnUse">
<stop stop-color="#D4FFFB"/>
<stop offset="1" stop-color="#61D1C5"/>
</linearGradient>
</defs>
</svg>
