<svg xmlns="http://www.w3.org/2000/svg" width="16.5" height="16.5" viewBox="0 0 16.5 16.5">
  <g id="globe" transform="translate(0.25 0.25)">
    <path id="Forma_1" data-name="Forma 1" d="M8,0A7.962,7.962,0,0,0,0,8a7.951,7.951,0,0,0,8,8c6.1,0,8-5.345,8-8A7.935,7.935,0,0,0,8,0ZM6.145.753A7.143,7.143,0,0,0,4.17,4.1,7.432,7.432,0,0,1,2.586,2.841,7.5,7.5,0,0,1,6.145.753Zm-3.9,2.472A7.843,7.843,0,0,0,4.028,4.617a13.526,13.526,0,0,0-.409,3.124H.523A7.451,7.451,0,0,1,2.243,3.225Zm0,9.55A7.432,7.432,0,0,1,.523,8.258h3.1a13.5,13.5,0,0,0,.409,3.124A8.075,8.075,0,0,0,2.243,12.775Zm.343.387A7.432,7.432,0,0,1,4.17,11.9,7.159,7.159,0,0,0,6.145,15.25,7.547,7.547,0,0,1,2.586,13.162Zm5.156,2.3c-1.342-.17-2.5-1.669-3.121-3.817a7.528,7.528,0,0,1,3.121-.8v4.62Zm0-5.134a8.013,8.013,0,0,0-3.254.809,13.511,13.511,0,0,1-.356-2.882H7.742v2.072Zm0-2.589H4.132A13.511,13.511,0,0,1,4.488,4.86a8.038,8.038,0,0,0,3.254.809Zm0-2.586a7.468,7.468,0,0,1-3.121-.8C5.244,2.2,6.4.706,7.742.535Zm6.016-1.931a7.451,7.451,0,0,1,1.72,4.517H12.384a13.5,13.5,0,0,0-.409-3.124A7.986,7.986,0,0,0,13.757,3.225Zm-.343-.387A7.432,7.432,0,0,1,11.83,4.1,7.175,7.175,0,0,0,9.855.75,7.547,7.547,0,0,1,13.414,2.838ZM8.258.535C9.6.706,10.756,2.2,11.38,4.353a7.516,7.516,0,0,1-3.121.8Zm0,5.134a8.013,8.013,0,0,0,3.254-.809,13.511,13.511,0,0,1,.356,2.882H8.258Zm0,2.589h3.609a13.511,13.511,0,0,1-.356,2.882,7.913,7.913,0,0,0-3.254-.809Zm0,7.206v-4.62a7.468,7.468,0,0,1,3.121.8C10.756,13.8,9.6,15.294,8.258,15.465Zm1.6-.217A7.143,7.143,0,0,0,11.83,11.9a7.432,7.432,0,0,1,1.584,1.263A7.5,7.5,0,0,1,9.855,15.247Zm3.9-2.472a7.986,7.986,0,0,0-1.783-1.392,13.526,13.526,0,0,0,.409-3.124h3.093A7.451,7.451,0,0,1,13.757,12.775Z" fill="#0200e0" stroke="#0200e0" stroke-width="0.5"/>
  </g>
</svg>
