<svg id="instagram" xmlns="http://www.w3.org/2000/svg" width="16" height="16" viewBox="0 0 16 16">
  <g id="Group_8417" data-name="Group 8417" transform="translate(0 0)">
    <g id="Group_8416" data-name="Group 8416">
      <path id="Path_8121" data-name="Path 8121" d="M11.352,0h-6.7A4.653,4.653,0,0,0,0,4.648v6.7A4.653,4.653,0,0,0,4.648,16h6.7A4.653,4.653,0,0,0,16,11.352v-6.7A4.653,4.653,0,0,0,11.352,0Zm3.4,11.352a3.4,3.4,0,0,1-3.4,3.4h-6.7a3.4,3.4,0,0,1-3.4-3.4v-6.7a3.4,3.4,0,0,1,3.4-3.4h6.7a3.4,3.4,0,0,1,3.4,3.4Z" transform="translate(0 0)" fill="#0200e0"/>
    </g>
  </g>
  <g id="Group_8419" data-name="Group 8419" transform="translate(3.687 3.687)">
    <g id="Group_8418" data-name="Group 8418">
      <path id="Path_8122" data-name="Path 8122" d="M122.312,118a4.313,4.313,0,1,0,4.313,4.312A4.317,4.317,0,0,0,122.312,118Zm0,7.375a3.063,3.063,0,1,1,3.063-3.063A3.066,3.066,0,0,1,122.312,125.375Z" transform="translate(-118 -118)" fill="#0200e0"/>
    </g>
  </g>
  <g id="Group_8421" data-name="Group 8421" transform="translate(11.993 3.009)">
    <g id="Group_8420" data-name="Group 8420" transform="translate(0 0)">
      <circle id="Ellipse_1175" data-name="Ellipse 1175" cx="0.499" cy="0.499" r="0.499" fill="#0200e0"/>
    </g>
  </g>
</svg>
