<svg xmlns="http://www.w3.org/2000/svg" width="16" height="16.005" viewBox="0 0 16 16.005">
  <g id="Group_23451" data-name="Group 23451" transform="translate(-309 -1578)">
    <path id="Path_8124" data-name="Path 8124" d="M15.032,18.371H18.14a.5.5,0,0,0,.5-.5C18.407,12.63,19.868,7.1,14.413,7.1a3.968,3.968,0,0,0-2.487.832c0-.974-1.053-.435-3.484-.58a.5.5,0,0,0-.5.5c.2,9.447-.449,10.517.5,10.517H11.55c.9,0,.328-1.272.5-5.46,0-1.73.5-2.069,1.364-2.069.956,0,1.117.664,1.117,2.153C14.7,17.106,14.133,18.371,15.032,18.371Zm-1.617-8.53c-2.995,0-2.365,3.293-2.365,7.529H8.943V8.353h1.983v.866a.531.531,0,0,0,.986.233,2.779,2.779,0,0,1,2.5-1.35c2.352,0,3.226,1.156,3.226,4.265v5H15.532c0-4.764.5-7.53-2.117-7.53Z" transform="translate(306.345 1575.635)" fill="#0200e0"/>
    <path id="Path_8125" data-name="Path 8125" d="M.856,7.469c-.947,0-.3,1.057-.5,10.517a.5.5,0,0,0,.5.5H3.967c.947,0,.3-1.057.5-10.517,0-.864-1.254-.354-3.611-.5ZM3.467,17.487H1.356V8.47H3.467Z" transform="translate(308.872 1575.518)" fill="#0200e0"/>
    <path id="Path_8126" data-name="Path 8126" d="M2.312,0c-3.052,0-3.033,4.621,0,4.621S5.367,0,2.312,0Zm0,3.621a1.31,1.31,0,0,1,0-2.62A1.31,1.31,0,0,1,2.312,3.621Z" transform="translate(308.97 1578)" fill="#0200e0"/>
  </g>
</svg>
