<svg xmlns="http://www.w3.org/2000/svg" width="16.646" height="16.458" viewBox="0 0 16.646 16.458">
  <g id="Group_1613" data-name="Group 1613" transform="translate(0.292 0.343)">
    <path id="Path_3692" data-name="Path 3692" d="M116.28,114.012l-2.526-2.514a1.468,1.468,0,0,0-2.076,0h0l-1.445,1.445a.319.319,0,0,1-.409.036,16.663,16.663,0,0,1-3.893-3.821.314.314,0,0,1,.032-.409l1.481-1.479a1.468,1.468,0,0,0,0-2.072l-2.526-2.525a1.5,1.5,0,0,0-2.079,0l-.8.8a4.49,4.49,0,0,0-1.113,4.58,13.469,13.469,0,0,0,1.643,3.331,17.464,17.464,0,0,0,5.042,4.952A12.853,12.853,0,0,0,111.348,118a4.326,4.326,0,0,0,1.041.126,4.543,4.543,0,0,0,3.2-1.347l.687-.687A1.468,1.468,0,0,0,116.28,114.012Zm-.636,1.462h0l0-.014-.687.687a3.591,3.591,0,0,1-3.389.971,11.934,11.934,0,0,1-3.466-1.554,16.6,16.6,0,0,1-4.777-4.683,12.57,12.57,0,0,1-1.535-3.108,3.591,3.591,0,0,1,.9-3.668l.8-.8a.57.57,0,0,1,.806,0h0l2.525,2.526a.57.57,0,0,1,0,.806h0l-1.482,1.482a1.208,1.208,0,0,0-.126,1.572,17.686,17.686,0,0,0,4.108,4.032,1.217,1.217,0,0,0,1.554-.135l1.432-1.454a.57.57,0,0,1,.806,0h0l2.525,2.532A.57.57,0,0,1,115.644,115.474Z" transform="translate(-100.709 -102.256)" fill="#0200e0" stroke="#0200e0" stroke-width="0.5"/>
  </g>
</svg>
