<svg xmlns="http://www.w3.org/2000/svg" width="20.704" height="15.681" viewBox="0 0 20.704 15.681">
  <g id="youtube_1_" data-name="youtube (1)" transform="translate(0.001 0)">
    <path id="Path_10354" data-name="Path 10354" d="M196.763,109.13l-4.574-2.5a.84.84,0,0,0-1.243.737v4.962a.839.839,0,0,0,1.238.74l4.574-2.46a.84.84,0,0,0,.005-1.477Zm-4.6,2.572v-3.709l3.418,1.871Zm0,0" transform="translate(-183.226 -102.216)" fill="#0200e0"/>
    <path id="Path_10355" data-name="Path 10355" d="M20.551,3.7V3.692a4.735,4.735,0,0,0-.913-2.4A3.369,3.369,0,0,0,17.406.243L17.3.23l-.036,0C14.53.027,10.4,0,10.355,0h-.007c-.041,0-4.175.027-6.937.226l-.036,0-.1.012A3.284,3.284,0,0,0,1.059,1.32,4.962,4.962,0,0,0,.154,3.68l0,.021C.145,3.77,0,5.421,0,7.078V8.628c0,1.657.146,3.308.152,3.378v.01a4.688,4.688,0,0,0,.909,2.373A3.438,3.438,0,0,0,3.368,15.42c.084.01.157.018.206.027l.048.007c1.58.15,6.535.224,6.745.227h.013c.041,0,4.175-.027,6.912-.226l.036,0,.116-.013a3.208,3.208,0,0,0,2.2-1.052,4.961,4.961,0,0,0,.905-2.359l0-.021c.006-.07.152-1.72.152-3.377V7.078c0-1.657-.146-3.308-.152-3.377ZM19.49,8.628c0,1.534-.134,3.114-.147,3.259a3.852,3.852,0,0,1-.6,1.681,2,2,0,0,1-1.432.664l-.129.015c-2.647.191-6.625.221-6.808.222-.206,0-5.088-.078-6.62-.22-.079-.013-.163-.023-.253-.033a2.269,2.269,0,0,1-1.552-.648l-.011-.012a3.5,3.5,0,0,1-.583-1.664c-.01-.11-.147-1.708-.147-3.263V7.078c0-1.532.134-3.11.147-3.258a3.773,3.773,0,0,1,.6-1.681,2.093,2.093,0,0,1,1.462-.692l.1-.012c2.686-.192,6.692-.221,6.836-.222s4.148.03,6.81.222l.107.013a2.173,2.173,0,0,1,1.486.673l0,.005a3.551,3.551,0,0,1,.583,1.688c.009.1.147,1.705.147,3.264Zm0,0" fill="#0200e0"/>
  </g>
</svg>
