<svg xmlns="http://www.w3.org/2000/svg" width="26.382" height="26.195" viewBox="0 0 26.382 26.195">
  <g id="Group_23450" data-name="Group 23450" transform="translate(-105.5 -106.175)">
    <path id="Path_3659" data-name="Path 3659" d="M14.029,9.09l9.317,1.851A1.563,1.563,0,0,1,24.6,12.485V23.272a1.584,1.584,0,0,1-1.586,1.586H13.5a.524.524,0,0,0,.529-.529V23.8h8.99a.53.53,0,0,0,.529-.529V12.485a.531.531,0,0,0-.412-.518l-9.106-1.8Z" transform="translate(106.777 107.012)" fill="#7e84a3" stroke="#525a67" stroke-width="1"/>
    <path id="Path_3661" data-name="Path 3661" d="M19.644,17a.529.529,0,1,1,0,1.058H17.529a.529.529,0,0,1,0-1.058Z" transform="translate(94.556 96.598)" fill="#7e84a3" stroke="#525a67" stroke-width="1"/>
    <path id="Path_3775" data-name="Path 3775" d="M19.644,20a.529.529,0,1,1,0,1.058H17.529a.529.529,0,0,1,0-1.058Z" transform="translate(106.979 102.982)" fill="#7e84a3" stroke="#525a67" stroke-width="1"/>
    <path id="Path_3663" data-name="Path 3663" d="M14.058,24.335a.529.529,0,0,1-1.058,0V9.529a.562.562,0,0,1,.19-.412.556.556,0,0,1,.444-.106l.423.085v15.24Z" transform="translate(106.749 107.006)" fill="#7e84a3" stroke="#525a67" stroke-width="1"/>
    <path id="Path_3664" data-name="Path 3664" d="M13.2,23v.529a.524.524,0,0,0,.529.529H9.5a.524.524,0,0,0,.529-.529V23Z" transform="translate(106.547 107.813)" fill="#7e84a3" stroke="#525a67" stroke-width="1"/>
    <path id="Path_3673" data-name="Path 3673" d="M9.288,18.586a.53.53,0,0,0-.529-.529H5.586a.524.524,0,0,0-.529.529v4.759H4V18.586A1.584,1.584,0,0,1,5.586,17H8.759a1.584,1.584,0,0,1,1.586,1.586v4.759H9.288Z" transform="translate(106.23 107.467)" fill="#7e84a3" stroke="#525a67" stroke-width="1"/>
    <path id="Path_3674" data-name="Path 3674" d="M5.058,23h5.288v.529a.524.524,0,0,1-.529.529H4.529A.524.524,0,0,1,4,23.529V23Z" transform="translate(106.23 107.813)" fill="#7e84a3" stroke="#525a67" stroke-width="1"/>
    <path id="Path_3675" data-name="Path 3675" d="M1.851.2,13.474,1.967a1.581,1.581,0,0,1,1.333,1.565V9.6l-.423-.085a.556.556,0,0,0-.444.106.562.562,0,0,0-.19.412v-6.5A.535.535,0,0,0,13.3,3L1.682,1.248a.293.293,0,0,0-.1-.011.5.5,0,0,0-.338.127.506.506,0,0,0-.19.4V23.785a.53.53,0,0,0,.529.529H4.23v.529a.524.524,0,0,0,.529.529H1.586A1.584,1.584,0,0,1,0,23.785V1.766A1.557,1.557,0,0,1,.561.561,1.588,1.588,0,0,1,1.851.2Z" transform="translate(106 106.498)" fill="#7e84a3" stroke="#525a67" stroke-width="1"/>
  </g>
</svg>
