<svg xmlns="http://www.w3.org/2000/svg" width="10.626" height="20" viewBox="0 0 10.626 20">
  <path id="facebook_1_" data-name="facebook (1)" d="M6.687,11.614h2.1v7.76A.625.625,0,0,0,9.41,20H12.75a.625.625,0,0,0,.625-.625v-7.76h1.989a.625.625,0,0,0,.62-.548L16.4,7.734a.626.626,0,0,0-.62-.7h-2.4c.094-2.059-.363-2.668.977-2.668.907-.108,2.337.351,2.337-.625V.758a.625.625,0,0,0-.54-.619A22.438,22.438,0,0,0,13.57,0C7.728,0,8.93,6.477,8.786,7.031h-2.1a.625.625,0,0,0-.625.625v3.333A.625.625,0,0,0,6.687,11.614Zm.625-3.333h2.1a.625.625,0,0,0,.625-.625V5.031c0-2.4,1.288-3.78,3.533-3.78.732,0,1.405.036,1.868.072V3.114c-.335.171-3.313-.737-3.313,2.248v2.3a.625.625,0,0,0,.625.625H15.07l-.26,2.083H12.749a.625.625,0,0,0-.625.625V18.75H10.036V10.99a.625.625,0,0,0-.625-.625h-2.1Z" transform="translate(-6.062)" fill="#0200e0"/>
</svg>
