<svg xmlns="http://www.w3.org/2000/svg" width="52" height="129" viewBox="0 0 52 129">
  <g id="Group_27897" data-name="Group 27897" transform="translate(-1127 -239)">
    <circle id="Ellipse_1440" data-name="Ellipse 1440" cx="2" cy="2" r="2" transform="translate(1127 239)" fill="#0017c1"/>
    <circle id="Ellipse_1440-2" data-name="Ellipse 1440" cx="2" cy="2" r="2" transform="translate(1151 239)" fill="#0017c1"/>
    <circle id="Ellipse_1440-3" data-name="Ellipse 1440" cx="2" cy="2" r="2" transform="translate(1175 239)" fill="#0017c1"/>
    <circle id="Ellipse_1440-4" data-name="Ellipse 1440" cx="2" cy="2" r="2" transform="translate(1127 264)" fill="#0017c1"/>
    <circle id="Ellipse_1440-5" data-name="Ellipse 1440" cx="2" cy="2" r="2" transform="translate(1151 264)" fill="#0017c1"/>
    <circle id="Ellipse_1440-6" data-name="Ellipse 1440" cx="2" cy="2" r="2" transform="translate(1175 264)" fill="#0017c1"/>
    <circle id="Ellipse_1440-7" data-name="Ellipse 1440" cx="2" cy="2" r="2" transform="translate(1127 289)" fill="#0017c1"/>
    <circle id="Ellipse_1440-8" data-name="Ellipse 1440" cx="2" cy="2" r="2" transform="translate(1151 289)" fill="#0017c1"/>
    <circle id="Ellipse_1440-9" data-name="Ellipse 1440" cx="2" cy="2" r="2" transform="translate(1175 289)" fill="#0017c1"/>
    <circle id="Ellipse_1440-10" data-name="Ellipse 1440" cx="2" cy="2" r="2" transform="translate(1127 314)" fill="#0017c1"/>
    <circle id="Ellipse_1440-11" data-name="Ellipse 1440" cx="2" cy="2" r="2" transform="translate(1151 314)" fill="#0017c1"/>
    <circle id="Ellipse_1440-12" data-name="Ellipse 1440" cx="2" cy="2" r="2" transform="translate(1175 314)" fill="#0017c1"/>
    <circle id="Ellipse_1440-13" data-name="Ellipse 1440" cx="2" cy="2" r="2" transform="translate(1127 339)" fill="#0017c1"/>
    <circle id="Ellipse_1440-14" data-name="Ellipse 1440" cx="2" cy="2" r="2" transform="translate(1151 339)" fill="#0017c1"/>
    <circle id="Ellipse_1440-15" data-name="Ellipse 1440" cx="2" cy="2" r="2" transform="translate(1175 339)" fill="#0017c1"/>
    <circle id="Ellipse_1440-16" data-name="Ellipse 1440" cx="2" cy="2" r="2" transform="translate(1127 364)" fill="#0017c1"/>
    <circle id="Ellipse_1440-17" data-name="Ellipse 1440" cx="2" cy="2" r="2" transform="translate(1151 364)" fill="#0017c1"/>
    <circle id="Ellipse_1440-18" data-name="Ellipse 1440" cx="2" cy="2" r="2" transform="translate(1175 364)" fill="#0017c1"/>
  </g>
</svg>
