<svg xmlns="http://www.w3.org/2000/svg" width="13.563" height="13.563" viewBox="0 0 13.563 13.563">
  <path id="Path_13940" data-name="Path 13940" d="M7-12.031a6.573,6.573,0,0,1,3.391.916,6.852,6.852,0,0,1,2.475,2.475,6.573,6.573,0,0,1,.916,3.391,6.573,6.573,0,0,1-.916,3.391A6.852,6.852,0,0,1,10.391.615,6.573,6.573,0,0,1,7,1.531,6.573,6.573,0,0,1,3.609.615,6.852,6.852,0,0,1,1.135-1.859,6.573,6.573,0,0,1,.219-5.25a6.573,6.573,0,0,1,.916-3.391,6.852,6.852,0,0,1,2.475-2.475A6.573,6.573,0,0,1,7-12.031ZM7-9.023a1.1,1.1,0,0,0-.807.342,1.1,1.1,0,0,0-.342.807,1.1,1.1,0,0,0,.342.807A1.1,1.1,0,0,0,7-6.727a1.1,1.1,0,0,0,.807-.342,1.1,1.1,0,0,0,.342-.807,1.1,1.1,0,0,0-.342-.807A1.1,1.1,0,0,0,7-9.023ZM8.531-2.078v-.656a.316.316,0,0,0-.1-.232.316.316,0,0,0-.232-.1H7.875V-5.8a.316.316,0,0,0-.1-.232.316.316,0,0,0-.232-.1H5.8a.316.316,0,0,0-.232.1.316.316,0,0,0-.1.232v.656a.316.316,0,0,0,.1.232.316.316,0,0,0,.232.1h.328v1.75H5.8a.316.316,0,0,0-.232.1.316.316,0,0,0-.1.232v.656a.316.316,0,0,0,.1.232.316.316,0,0,0,.232.1H8.2a.316.316,0,0,0,.232-.1A.316.316,0,0,0,8.531-2.078Z" transform="translate(-0.219 12.031)" fill="#f6465d"/>
</svg>
