<svg xmlns="http://www.w3.org/2000/svg" xmlns:xlink="http://www.w3.org/1999/xlink" width="247.385" height="26.737" viewBox="0 0 247.385 26.737">
  <defs>
    <linearGradient id="linear-gradient" x1="0.5" y1="1" x2="0.5" gradientUnits="objectBoundingBox">
      <stop offset="0" stop-color="#d4fffb"/>
      <stop offset="1" stop-color="#61d1c5"/>
    </linearGradient>
  </defs>
  <g id="DAO_Logo" data-name="DAO Logo" transform="translate(13651.152 10282)">
    <path id="Path_13439" data-name="Path 13439" d="M18-10.77v2.385a14.319,14.319,0,0,1-.18,2.3,8.708,8.708,0,0,1-.63,2.13,6.349,6.349,0,0,1-1.35,1.92A6.408,6.408,0,0,1,13.335-.5,9.672,9.672,0,0,1,10.2,0H2.49V-21.36H10.2a9.672,9.672,0,0,1,3.135.5,6.408,6.408,0,0,1,2.5,1.545,6.487,6.487,0,0,1,1.35,1.89,8.264,8.264,0,0,1,.63,2.07A13.577,13.577,0,0,1,18-13.125Zm-4.17,0q0-1.2-.03-2.085a15.477,15.477,0,0,0-.12-1.545,4.747,4.747,0,0,0-.27-1.11,2.991,2.991,0,0,0-.48-.81,3.441,3.441,0,0,0-1.29-.99,4.536,4.536,0,0,0-1.83-.33H6.66V-3.72H9.81a4.536,4.536,0,0,0,1.83-.33,3.441,3.441,0,0,0,1.29-.99,4.014,4.014,0,0,0,.735-2.01A31.478,31.478,0,0,0,13.83-10.77ZM34.11,0,32.85-3.78H25.26L23.97,0H19.62l7.77-21.36h3.27L38.46,0ZM29.13-15.06l-2.7,7.77h5.31Zm26.73,4.38q0,1.38-.03,2.58A14.284,14.284,0,0,1,55.6-5.85a7.925,7.925,0,0,1-.63,1.965A6.23,6.23,0,0,1,53.73-2.16,8.09,8.09,0,0,1,51.195-.42a8.1,8.1,0,0,1-3.225.6,8.212,8.212,0,0,1-3.24-.6,8.039,8.039,0,0,1-2.55-1.74,6.23,6.23,0,0,1-1.245-1.725A7.506,7.506,0,0,1,40.32-5.85a15.643,15.643,0,0,1-.21-2.25q-.03-1.2-.03-2.58t.03-2.58a15.643,15.643,0,0,1,.21-2.25,7.506,7.506,0,0,1,.615-1.965A6.23,6.23,0,0,1,42.18-19.2a8.039,8.039,0,0,1,2.55-1.74,8.212,8.212,0,0,1,3.24-.6,8.1,8.1,0,0,1,3.225.6A8.09,8.09,0,0,1,53.73-19.2a6.23,6.23,0,0,1,1.245,1.725,7.925,7.925,0,0,1,.63,1.965,14.284,14.284,0,0,1,.225,2.25Q55.86-12.06,55.86-10.68Zm-4.17,0q0-1.53-.045-2.535a12.766,12.766,0,0,0-.165-1.665,3.834,3.834,0,0,0-.33-1.065,3.444,3.444,0,0,0-.51-.735,3.387,3.387,0,0,0-1.125-.825,3.614,3.614,0,0,0-1.545-.315,3.716,3.716,0,0,0-1.56.315,3.35,3.35,0,0,0-1.14.825,3.06,3.06,0,0,0-.495.735,4.251,4.251,0,0,0-.315,1.065,12.766,12.766,0,0,0-.165,1.665q-.045,1.005-.045,2.535t.045,2.535A12.766,12.766,0,0,0,44.46-6.48a4.251,4.251,0,0,0,.315,1.065,3.06,3.06,0,0,0,.495.735,3.35,3.35,0,0,0,1.14.825,3.716,3.716,0,0,0,1.56.315,3.614,3.614,0,0,0,1.545-.315A3.387,3.387,0,0,0,50.64-4.68a3.443,3.443,0,0,0,.51-.735,3.834,3.834,0,0,0,.33-1.065,12.766,12.766,0,0,0,.165-1.665Q51.69-9.15,51.69-10.68Z" transform="translate(-13617 -10257)" fill="#272525"/>
    <path id="Path_13440" data-name="Path 13440" d="M16.464-14.084a6.363,6.363,0,0,1-.448,2.436A5.164,5.164,0,0,1,14.756-9.8,5.746,5.746,0,0,1,12.81-8.624,7.167,7.167,0,0,1,10.3-8.2H5.012V0H2.884V-19.936H10.3a7.39,7.39,0,0,1,2.506.406,5.465,5.465,0,0,1,1.946,1.176,5.333,5.333,0,0,1,1.26,1.848A6.257,6.257,0,0,1,16.464-14.084Zm-2.128,0a3.643,3.643,0,0,0-1.176-2.968,4.608,4.608,0,0,0-3.052-.98h-5.1v7.924h5.1A4.566,4.566,0,0,0,13.16-11.1,3.686,3.686,0,0,0,14.336-14.084ZM33.376,0,28.84-8.848H24.052V0H21.924V-19.936h7.644a7.2,7.2,0,0,1,2.394.378,5.365,5.365,0,0,1,1.862,1.092,4.882,4.882,0,0,1,1.218,1.75,5.962,5.962,0,0,1,.434,2.324,5.247,5.247,0,0,1-1.2,3.57,5.461,5.461,0,0,1-3.136,1.778L35.868,0Zm-.028-14.364a3.364,3.364,0,0,0-1.106-2.758,4.37,4.37,0,0,0-2.87-.91h-5.32v7.308h5.32a4.416,4.416,0,0,0,2.87-.9A3.322,3.322,0,0,0,33.348-14.364Zm21.532,4.4q0,1.6-.028,2.786a12.827,12.827,0,0,1-.21,2.128,6.568,6.568,0,0,1-.56,1.694A5.645,5.645,0,0,1,53-1.9a7,7,0,0,1-2.3,1.54,7.263,7.263,0,0,1-2.8.532,6.927,6.927,0,0,1-5.1-2.072A5.645,5.645,0,0,1,41.734-3.36a6.568,6.568,0,0,1-.56-1.694,12.827,12.827,0,0,1-.21-2.128q-.028-1.19-.028-2.786t.028-2.786a12.827,12.827,0,0,1,.21-2.128,6.568,6.568,0,0,1,.56-1.694,5.645,5.645,0,0,1,1.078-1.456,6.927,6.927,0,0,1,5.1-2.072A6.927,6.927,0,0,1,53-18.032a5.645,5.645,0,0,1,1.078,1.456,6.568,6.568,0,0,1,.56,1.694,12.827,12.827,0,0,1,.21,2.128Q54.88-11.564,54.88-9.968Zm-2.128,0q0-1.568-.042-2.646a13.056,13.056,0,0,0-.182-1.834,4.743,4.743,0,0,0-.42-1.3,4.079,4.079,0,0,0-.756-1.022,4.529,4.529,0,0,0-1.554-1.05,4.88,4.88,0,0,0-1.89-.378,4.88,4.88,0,0,0-1.89.378,4.529,4.529,0,0,0-1.554,1.05,4.079,4.079,0,0,0-.756,1.022,4.743,4.743,0,0,0-.42,1.3,13.056,13.056,0,0,0-.182,1.834q-.042,1.078-.042,2.646t.042,2.646a13.056,13.056,0,0,0,.182,1.834,4.742,4.742,0,0,0,.42,1.3,4.079,4.079,0,0,0,.756,1.022,4.529,4.529,0,0,0,1.554,1.05,4.88,4.88,0,0,0,1.89.378,4.88,4.88,0,0,0,1.89-.378,4.529,4.529,0,0,0,1.554-1.05,4.079,4.079,0,0,0,.756-1.022,4.743,4.743,0,0,0,.42-1.3,13.056,13.056,0,0,0,.182-1.834Q52.752-8.4,52.752-9.968Zm22.12-4.116a6.363,6.363,0,0,1-.448,2.436A5.164,5.164,0,0,1,73.164-9.8a5.746,5.746,0,0,1-1.946,1.176,7.167,7.167,0,0,1-2.506.42H63.42V0H61.292V-19.936h7.42a7.39,7.39,0,0,1,2.506.406,5.465,5.465,0,0,1,1.946,1.176,5.333,5.333,0,0,1,1.26,1.848A6.257,6.257,0,0,1,74.872-14.084Zm-2.128,0a3.643,3.643,0,0,0-1.176-2.968,4.608,4.608,0,0,0-3.052-.98h-5.1v7.924h5.1a4.566,4.566,0,0,0,3.052-.994A3.686,3.686,0,0,0,72.744-14.084Zm19.208-3.948H86.184V0H84.056V-18.032H78.288v-1.9H91.952ZM109.452,0H97.076V-19.936h12.376v1.9H99.2V-11h8.736v1.9H99.2v7.2h10.248Zm18.956-5.768a8.27,8.27,0,0,1-.854,2.506A6.313,6.313,0,0,1,126.042-1.4a6.674,6.674,0,0,1-2.058,1.162,7.424,7.424,0,0,1-2.492.406,7.294,7.294,0,0,1-2.786-.532A6.962,6.962,0,0,1,116.4-1.9a5.645,5.645,0,0,1-1.078-1.456,6.568,6.568,0,0,1-.56-1.694,12.828,12.828,0,0,1-.21-2.128q-.028-1.19-.028-2.786t.028-2.786a12.828,12.828,0,0,1,.21-2.128,6.568,6.568,0,0,1,.56-1.694,5.645,5.645,0,0,1,1.078-1.456,6.962,6.962,0,0,1,2.31-1.54,7.294,7.294,0,0,1,2.786-.532,7.424,7.424,0,0,1,2.492.406,6.674,6.674,0,0,1,2.058,1.162,6.313,6.313,0,0,1,1.512,1.862,8.27,8.27,0,0,1,.854,2.506h-2.184a5.254,5.254,0,0,0-1.624-2.94,4.513,4.513,0,0,0-3.108-1.092,5.044,5.044,0,0,0-1.89.364,4.369,4.369,0,0,0-1.554,1.036,4.079,4.079,0,0,0-.756,1.022,4.743,4.743,0,0,0-.42,1.316,13.428,13.428,0,0,0-.182,1.848q-.042,1.078-.042,2.646t.042,2.646a13.428,13.428,0,0,0,.182,1.848,4.743,4.743,0,0,0,.42,1.316,4.079,4.079,0,0,0,.756,1.022A4.369,4.369,0,0,0,119.6-2.1a5.044,5.044,0,0,0,1.89.364,4.618,4.618,0,0,0,3.136-1.092,5.18,5.18,0,0,0,1.652-2.94ZM148.232,0H146.1V-9.1H136.64V0h-2.128V-19.936h2.128V-11H146.1v-8.932h2.128Z" transform="translate(-13552 -10258)" fill="#272525"/>
    <g id="Group_11074" data-name="Group 11074" transform="translate(-13838.557 -10936.588)">
      <path id="Path_31" data-name="Path 31" d="M204.416,681.535v-9.81l-8.5-4.9-8.467,4.888,16.94,9.839Z" transform="translate(-0.021 -5.114)" fill="#0200e0"/>
      <path id="Path_32" data-name="Path 32" d="M187.433,675.221l-.029.017v9.81l8.5,4.9,8.473-4.892Z" transform="translate(0 -8.627)" fill="#3268fc"/>
      <path id="Path_33" data-name="Path 33" d="M202.029,663.008v9.81l8.5,4.9,8.467-4.888L202.051,663Z" transform="translate(-6.115 -3.515)" fill="#0200e0"/>
      <path id="Path_34" data-name="Path 34" d="M218.94,669.319l.029-.017v-9.81l-8.444-4.9-8.5,4.9Z" transform="translate(-6.115)" fill="#3268fc"/>
      <path id="Path_35" data-name="Path 35" d="M202.029,659.5l8.5-4.909v21.828l-8.5,4.909Z" transform="translate(-6.115)" fill="url(#linear-gradient)"/>
    </g>
  </g>
</svg>
