<svg xmlns="http://www.w3.org/2000/svg" width="60" height="60" viewBox="0 0 60 60">
  <g id="Group_10997" data-name="Group 10997" transform="translate(-4018 -1875)">
    <g id="Ellipse_1193" data-name="Ellipse 1193" transform="translate(4018 1875)" fill="#fff" stroke="#d7dbec" stroke-width="2">
      <circle cx="30" cy="30" r="30" stroke="none"/>
      <circle cx="30" cy="30" r="29" fill="none"/>
    </g>
    <g id="Group_1614" data-name="Group 1614" transform="translate(3933.292 1788.744)">
      <g id="Group_1613" data-name="Group 1613" transform="translate(100.709 102.256)">
        <path id="Path_3692" data-name="Path 3692" d="M127.959,122.829l-4.42-4.4a2.569,2.569,0,0,0-3.633,0h0l-2.529,2.529a.558.558,0,0,1-.715.062,29.16,29.16,0,0,1-6.812-6.686.55.55,0,0,1,.056-.715l2.592-2.588a2.569,2.569,0,0,0,0-3.626l-4.42-4.42a2.633,2.633,0,0,0-3.638,0l-1.4,1.4a7.857,7.857,0,0,0-1.948,8.014,23.571,23.571,0,0,0,2.875,5.829,30.561,30.561,0,0,0,8.823,8.666,22.492,22.492,0,0,0,6.537,2.907,7.57,7.57,0,0,0,1.822.22,7.951,7.951,0,0,0,5.6-2.357l1.2-1.2A2.569,2.569,0,0,0,127.959,122.829Zm-1.113,2.558h0l.008-.024-1.2,1.2a6.285,6.285,0,0,1-5.931,1.7,20.884,20.884,0,0,1-6.065-2.72,29.048,29.048,0,0,1-8.36-8.194,22,22,0,0,1-2.687-5.44,6.285,6.285,0,0,1,1.572-6.419l1.392-1.394a1,1,0,0,1,1.411,0h0l4.42,4.42a1,1,0,0,1,0,1.411h0l-2.593,2.593a2.114,2.114,0,0,0-.22,2.75,30.95,30.95,0,0,0,7.189,7.056,2.129,2.129,0,0,0,2.72-.236l2.507-2.545a1,1,0,0,1,1.411,0h0l4.42,4.431A1,1,0,0,1,126.846,125.387Z" transform="translate(-100.709 -102.256)" fill="#0200e0" stroke="#0200e0" stroke-width="0.5"/>
      </g>
    </g>
  </g>
</svg>
