<svg xmlns="http://www.w3.org/2000/svg" width="48.537" height="40.25" viewBox="0 0 48.537 40.25">
  <g id="twitter" transform="translate(0.275 -4.292)">
    <path id="Path_8123" data-name="Path 8123" d="M47.6,9.187a.91.91,0,0,0-1.058.028,5.454,5.454,0,0,1-1.785.743c1.859-2.083,1.9-3.475,1.879-3.795a.908.908,0,0,0-1.44-.678,9.653,9.653,0,0,1-5.414,1.874,10.051,10.051,0,0,0-7-2.817,10.285,10.285,0,0,0-10.2,10.341,10.533,10.533,0,0,0,.1,1.465C12.929,16.238,5.01,6.893,4.928,6.8a.908.908,0,0,0-1.484.129c-2.806,4.868-.928,9.144.788,11.592a6.009,6.009,0,0,1-.7-.43.909.909,0,0,0-1.451.714,9.923,9.923,0,0,0,4.257,8.766.909.909,0,0,0-.959,1.169,9.743,9.743,0,0,0,7.278,6.908C8,39.272,1.143,38.1,1.068,38.091a.908.908,0,0,0-.711,1.616c4.918,3.754,10.8,4.585,15.049,4.585a29.014,29.014,0,0,0,5.713-.524c21.523-5.1,22.129-24.815,22.079-28.046,4.041-3.757,4.672-5.189,4.769-5.543A.905.905,0,0,0,47.6,9.187Zm-5.938,5.481a.908.908,0,0,0-.291.729c.057.872,1.158,21.431-20.655,26.6-.1.021-8.77,1.83-16.286-1.894,3.176-.088,7.73-.92,10.9-4.482a.908.908,0,0,0-.678-1.512h-.009a8.076,8.076,0,0,1-7-4.542,6.185,6.185,0,0,0,2.827-.4.908.908,0,0,0-.193-1.714,8.266,8.266,0,0,1-6.3-7.03,5.31,5.31,0,0,0,2.855.485A.909.909,0,0,0,7.3,19.32c-.227-.2-5.213-4.629-2.849-10.345,2.567,2.693,10.168,9.691,19.379,9.162a.909.909,0,0,0,.829-1.128,8.744,8.744,0,0,1-.263-2.126,8.467,8.467,0,0,1,8.389-8.524A8.263,8.263,0,0,1,38.762,8.9a.911.911,0,0,0,.637.276,11.284,11.284,0,0,0,4.332-.816,14.625,14.625,0,0,1-2.388,2.287.908.908,0,0,0,.634,1.619,20.525,20.525,0,0,0,2.51-.376C43.82,12.608,42.909,13.522,41.663,14.668Z" transform="translate(0 0)" fill="#0200e0" stroke="#0200e0" stroke-width="0.5"/>
  </g>
</svg>
